<?xml version="1.0" encoding="UTF-8"?>
<svg version="1.1" xmlns="http://www.w3.org/2000/svg" width="500" height="500">
<path d="M0 0 C0.57105469 0.47824219 1.14210937 0.95648438 1.73046875 1.44921875 C1.73046875 2.10921875 1.73046875 2.76921875 1.73046875 3.44921875 C2.39046875 3.44921875 3.05046875 3.44921875 3.73046875 3.44921875 C10.28530097 10.02327335 11.96108404 19.31111364 14.11279297 27.98046875 C14.73471207 30.4661786 15.38566382 32.94244079 16.046875 35.41796875 C18.35879745 44.07397764 20.59424759 52.74802523 22.73046875 61.44921875 C22.77945313 60.81113281 22.8284375 60.17304688 22.87890625 59.515625 C22.99105469 58.27619141 22.99105469 58.27619141 23.10546875 57.01171875 C23.20988281 55.77615234 23.20988281 55.77615234 23.31640625 54.515625 C23.45304688 53.83371094 23.5896875 53.15179688 23.73046875 52.44921875 C26.61462758 51.00713934 29.14768403 51.35526988 32.35546875 51.38671875 C33.54398438 51.39574219 34.7325 51.40476562 35.95703125 51.4140625 C36.87226563 51.42566406 37.7875 51.43726563 38.73046875 51.44921875 C38.6840625 50.25425781 38.63765625 49.05929688 38.58984375 47.828125 C38.08721525 29.7828134 38.08721525 29.7828134 44.6484375 22.24609375 C53.14897716 13.88096092 61.55345879 13.11180478 73.1171875 13.1484375 C79.39507041 13.67102883 85.12909184 15.6485303 90.73046875 18.44921875 C91.73046875 21.44921875 91.73046875 21.44921875 90.515625 23.9296875 C89.94714844 24.82300781 89.37867188 25.71632812 88.79296875 26.63671875 C88.22707031 27.53777344 87.66117188 28.43882812 87.078125 29.3671875 C86.41103516 30.39779297 86.41103516 30.39779297 85.73046875 31.44921875 C83.36823764 30.90408849 81.17208121 30.24414382 78.890625 29.40625 C75.50472383 28.38085348 72.6987508 28.14922447 69.16796875 28.13671875 C67.52634766 28.11158203 67.52634766 28.11158203 65.8515625 28.0859375 C62.33460214 28.49529584 60.51201718 29.28088647 57.73046875 31.44921875 C53.62396267 37.85373651 54.72399562 45.28264505 55.73046875 52.44921875 C56.7982959 52.20582764 56.7982959 52.20582764 57.88769531 51.95751953 C60.73002889 51.4492974 63.33041903 51.31990071 66.21484375 51.31640625 C67.74044922 51.31447266 67.74044922 51.31447266 69.296875 51.3125 C70.87275391 51.31830078 70.87275391 51.31830078 72.48046875 51.32421875 C73.54652344 51.32035156 74.61257812 51.31648438 75.7109375 51.3125 C77.22880859 51.31443359 77.22880859 51.31443359 78.77734375 51.31640625 C79.70385742 51.31753418 80.63037109 51.31866211 81.58496094 51.31982422 C83.73046875 51.44921875 83.73046875 51.44921875 84.73046875 52.44921875 C84.73046875 56.73921875 84.73046875 61.02921875 84.73046875 65.44921875 C75.16046875 65.44921875 65.59046875 65.44921875 55.73046875 65.44921875 C55.73046875 91.84921875 55.73046875 118.24921875 55.73046875 145.44921875 C52.99968999 146.81460813 50.77486508 146.58153701 47.73046875 146.57421875 C46.12171875 146.57808594 46.12171875 146.57808594 44.48046875 146.58203125 C41.73046875 146.44921875 41.73046875 146.44921875 39.73046875 145.44921875 C39.73046875 119.04921875 39.73046875 92.64921875 39.73046875 65.44921875 C34.45046875 65.44921875 29.17046875 65.44921875 23.73046875 65.44921875 C24.06046875 66.43921875 24.39046875 67.42921875 24.73046875 68.44921875 C26.00950447 84.21790198 21.96439807 95.17605628 11.73046875 107.44921875 C9.16081668 110.22747727 6.47938096 112.85002943 3.73046875 115.44921875 C2.94671875 116.27421875 2.16296875 117.09921875 1.35546875 117.94921875 C-9.66953125 128.44921875 -9.66953125 128.44921875 -13.26953125 128.44921875 C-13.26953125 129.10921875 -13.26953125 129.76921875 -13.26953125 130.44921875 C-27.52021714 138.87553723 -40.02375487 145.04978648 -56.93432617 141.10717773 C-60.5769329 140.08084996 -63.88227158 138.55609856 -67.26953125 136.88671875 C-68.35802368 136.36271484 -68.35802368 136.36271484 -69.46850586 135.828125 C-75.36737738 132.96036201 -81.17217739 129.91873964 -86.94750977 126.81079102 C-91.13901287 124.55725824 -95.36290995 122.40489234 -99.64477539 120.32836914 C-114.79640351 112.95076212 -123.10081785 106.07843728 -129.09375 89.953125 C-134.80989814 72.91862372 -143.11412503 46.60271734 -135.45703125 29.13671875 C-132.27133985 23.86353727 -128.05915135 19.26854671 -124 14.65625 C-120.86495163 11.05393273 -118.2110136 7.1807405 -115.609375 3.1796875 C-115.16722656 2.60863281 -114.72507812 2.03757813 -114.26953125 1.44921875 C-113.60953125 1.44921875 -112.94953125 1.44921875 -112.26953125 1.44921875 C-112.03878906 0.92199219 -111.80804688 0.39476562 -111.5703125 -0.1484375 C-109.84348792 -3.33761803 -107.67366839 -6.13179009 -105.45703125 -8.98828125 C-105.03099609 -9.54837891 -104.60496094 -10.10847656 -104.16601562 -10.68554688 C-99.37646555 -16.89529637 -95.37270866 -21.3909682 -87.51953125 -23.17578125 C-59.19997271 -26.44342262 -23.37591653 -15.9728724 0 0 Z M-97.26953125 17.44921875 C-94.79931383 30.9248078 -91.28023106 44.07615304 -87.65917969 57.27719116 C-84.86932639 67.44941965 -82.19111473 77.62013487 -79.83154297 87.90258789 C-78.29700172 94.52774199 -76.41382439 100.99238076 -74.26953125 107.44921875 C-61.08174315 102.56671705 -49.43289158 94.01165742 -38.15380859 85.8046875 C-34.77697632 83.37553839 -31.31671606 81.06647048 -27.859375 78.75390625 C-27.33472656 78.32335937 -26.81007813 77.8928125 -26.26953125 77.44921875 C-26.26953125 76.78921875 -26.26953125 76.12921875 -26.26953125 75.44921875 C-25.71523437 75.20945312 -25.1609375 74.9696875 -24.58984375 74.72265625 C-21.74396567 73.16077703 -19.55847109 71.24316171 -17.14453125 69.07421875 C-16.27570313 68.30335938 -15.406875 67.5325 -14.51171875 66.73828125 C-12.45437696 64.63792883 -11.55022214 63.02193408 -10.26953125 60.44921875 C-9.27953125 60.11921875 -8.28953125 59.78921875 -7.26953125 59.44921875 C-4.85957759 56.81380857 -4.85957759 56.81380857 -4.26953125 53.44921875 C-3.60953125 53.44921875 -2.94953125 53.44921875 -2.26953125 53.44921875 C-0.94953125 51.13921875 0.37046875 48.82921875 1.73046875 46.44921875 C-4.08018395 42.35593674 -9.85597576 38.92550876 -16.39453125 36.13671875 C-17.27125488 35.76208496 -18.14797852 35.38745117 -19.05126953 35.00146484 C-27.24708846 31.63774958 -35.64610552 29.03935108 -44.14453125 26.57421875 C-44.78553772 26.38717377 -45.42654419 26.20012878 -46.0869751 26.00741577 C-62.50312105 21.25576093 -80.08642874 16.751034 -97.26953125 17.44921875 Z " fill="#699CC5" transform="translate(151.26953125,190.55078125)"/>
<path d="M0 0 C0.33 0 0.66 0 1 0 C1.06058594 1.24394531 1.12117188 2.48789063 1.18359375 3.76953125 C1.62102836 12.53142574 2.07822869 21.27259077 3 30 C3.66 30 4.32 30 5 30 C8.08927566 40.5692712 10.94108968 51.19407366 13.72680664 61.84692383 C14.43024465 64.53477712 15.1378261 67.22151598 15.84570312 69.90820312 C18.44788068 79.82328177 20.9455254 89.7538168 23.24156189 99.74476624 C24.43147593 104.85992108 25.82674992 109.86034069 27.42601013 114.86354065 C28 117 28 117 28 120 C26.68 119.67 25.36 119.34 24 119 C24 119.66 24 120.32 24 121 C22.02 121 20.04 121 18 121 C17.34 122.65 16.68 124.3 16 126 C-6.77574697 129.43715011 -6.77574697 129.43715011 -13.0625 125.1875 C-15.203125 123.17578125 -15.203125 123.17578125 -17 121 C-17.57234375 120.33355469 -18.1446875 119.66710937 -18.734375 118.98046875 C-32.30939084 100.86924713 -37.51571948 69.11546122 -35 47 C-32.95194777 39.07727162 -27.01324118 33.20969335 -21.73046875 27.20703125 C-18.59542038 23.60471398 -15.94148235 19.73152175 -13.33984375 15.73046875 C-12.89769531 15.15941406 -12.45554687 14.58835938 -12 14 C-11.34 14 -10.68 14 -10 14 C-9.75378906 13.44828125 -9.50757812 12.8965625 -9.25390625 12.328125 C-7.75017961 9.53615902 -5.92621901 7.21875464 -3.9375 4.75 C-3.22464844 3.85796875 -2.51179688 2.9659375 -1.77734375 2.046875 C-1.19082031 1.37140625 -0.60429688 0.6959375 0 0 Z " fill="#CDDEF1" transform="translate(49,178)"/>
<path d="M0 0 C0.57105469 0.47824219 1.14210938 0.95648438 1.73046875 1.44921875 C1.73046875 2.10921875 1.73046875 2.76921875 1.73046875 3.44921875 C2.39046875 3.44921875 3.05046875 3.44921875 3.73046875 3.44921875 C8.41977991 8.85694806 11.64057701 15.35879946 12.73046875 22.44921875 C12.36328125 24.5078125 12.36328125 24.5078125 11.73046875 26.44921875 C11.37984375 27.68671875 11.02921875 28.92421875 10.66796875 30.19921875 C10.35859375 31.27171875 10.04921875 32.34421875 9.73046875 33.44921875 C9.07046875 33.44921875 8.41046875 33.44921875 7.73046875 33.44921875 C7.64796875 34.64546875 7.56546875 35.84171875 7.48046875 37.07421875 C7.18488822 41.36013641 5.1971585 44.00571986 2.73046875 47.44921875 C1.91707031 46.95292969 1.10367188 46.45664063 0.265625 45.9453125 C-13.75893474 37.55140005 -28.2483885 32.27334706 -43.89453125 27.69921875 C-44.8673555 27.41306198 -44.8673555 27.41306198 -45.85983276 27.12112427 C-63.32898699 22.01646363 -81.10158735 18.69315004 -99.26953125 17.44921875 C-101.16631504 10.21773055 -101.54205065 3.01110815 -101.64453125 -4.42578125 C-101.6703125 -5.34125732 -101.69609375 -6.2567334 -101.72265625 -7.19995117 C-101.73510367 -11.43090593 -101.66947004 -13.88364198 -99.45703125 -17.57421875 C-77.67143298 -37.2590629 -20.58002565 -14.06242717 0 0 Z " fill="#A0C0E1" transform="translate(151.26953125,190.55078125)"/>
<path d="M0 0 C1 3 1 3 -0.21484375 5.48046875 C-0.78332031 6.37378906 -1.35179687 7.26710937 -1.9375 8.1875 C-2.50339844 9.08855469 -3.06929688 9.98960937 -3.65234375 10.91796875 C-4.09707031 11.60503906 -4.54179687 12.29210937 -5 13 C-7.36223111 12.45486974 -9.55838754 11.79492507 -11.83984375 10.95703125 C-15.22574492 9.93163473 -18.03171795 9.70000572 -21.5625 9.6875 C-22.65691406 9.67074219 -23.75132812 9.65398437 -24.87890625 9.63671875 C-28.39586661 10.04607709 -30.21845157 10.83166772 -33 13 C-37.10650608 19.40451776 -36.00647313 26.8334263 -35 34 C-33.93217285 33.75660889 -33.93217285 33.75660889 -32.84277344 33.50830078 C-30.00043986 33.00007865 -27.40004972 32.87068196 -24.515625 32.8671875 C-23.49855469 32.86589844 -22.48148437 32.86460937 -21.43359375 32.86328125 C-20.38300781 32.86714844 -19.33242187 32.87101562 -18.25 32.875 C-17.18394531 32.87113281 -16.11789063 32.86726563 -15.01953125 32.86328125 C-14.00761719 32.86457031 -12.99570313 32.86585938 -11.953125 32.8671875 C-11.02661133 32.86831543 -10.10009766 32.86944336 -9.14550781 32.87060547 C-7 33 -7 33 -6 34 C-6 38.29 -6 42.58 -6 47 C-15.57 47 -25.14 47 -35 47 C-35 73.4 -35 99.8 -35 127 C-37.73077876 128.36538938 -39.95560367 128.13231826 -43 128.125 C-44.60875 128.12886719 -44.60875 128.12886719 -46.25 128.1328125 C-49 128 -49 128 -51 127 C-51 100.6 -51 74.2 -51 47 C-56.28 47 -61.56 47 -67 47 C-67 49.64 -67 52.28 -67 55 C-68.95703125 54.26953125 -68.95703125 54.26953125 -71 53 C-71.57421875 51.01171875 -71.57421875 51.01171875 -71.6875 48.6875 C-71.8851099 45.36200762 -72.30146099 42.25984871 -73 39 C-73.15339844 38.18660156 -73.30679688 37.37320313 -73.46484375 36.53515625 C-74.94077303 27.40090115 -74.94077303 27.40090115 -80 20 C-80.64834654 21.269553 -81.29357815 22.54069706 -81.9375 23.8125 C-82.29714844 24.52019531 -82.65679687 25.22789062 -83.02734375 25.95703125 C-84.9661721 30.02934943 -85.10673909 33.21935183 -85.0625 37.6875 C-85.05347656 38.86699219 -85.04445312 40.04648438 -85.03515625 41.26171875 C-85.02355469 42.16535156 -85.01195312 43.06898438 -85 44 C-85.99 43.67 -86.98 43.34 -88 43 C-88.495 41.515 -88.495 41.515 -89 40 C-89.66 39.67 -90.32 39.34 -91 39 C-90.68464959 33.11345895 -89.52509654 29.85881115 -86.2109375 25.03125 C-84.30124684 21.82789793 -83.71507394 18.64037643 -83 15 C-82.34 15 -81.68 15 -81 15 C-80.67 12.69 -80.34 10.38 -80 8 C-79.01 7.67 -78.02 7.34 -77 7 C-76.75765625 8.13695312 -76.5153125 9.27390625 -76.265625 10.4453125 C-74.39192666 19.11882904 -72.35690135 27.66956755 -69.83203125 36.1796875 C-69.16378787 38.44481293 -68.54908927 40.70380852 -68 43 C-67.95101562 42.36191406 -67.90203125 41.72382813 -67.8515625 41.06640625 C-67.77679688 40.24011719 -67.70203125 39.41382813 -67.625 38.5625 C-67.55539063 37.73878906 -67.48578125 36.91507813 -67.4140625 36.06640625 C-67.27742188 35.38449219 -67.14078125 34.70257813 -67 34 C-64.11584117 32.55792059 -61.58278472 32.90605113 -58.375 32.9375 C-57.18648437 32.94652344 -55.99796875 32.95554688 -54.7734375 32.96484375 C-53.85820312 32.97644531 -52.94296875 32.98804688 -52 33 C-52.04640625 31.80503906 -52.0928125 30.61007813 -52.140625 29.37890625 C-52.6432535 11.33359465 -52.6432535 11.33359465 -46.08203125 3.796875 C-33.62782712 -8.45894358 -14.90737054 -7.45368527 0 0 Z " fill="#45799C" transform="translate(242,209)"/>
<path d="M0 0 C0 6.6 0 13.2 0 20 C3.01447266 19.98259766 3.01447266 19.98259766 6.08984375 19.96484375 C8.02921424 19.9578926 9.96858503 19.95097604 11.90795898 19.94506836 C13.25920386 19.94002943 14.61044326 19.93319823 15.96166992 19.92456055 C17.90020434 19.91247581 19.838778 19.90730172 21.77734375 19.90234375 C23.52905884 19.89448853 23.52905884 19.89448853 25.31616211 19.88647461 C28 20 28 20 29 21 C29 25.29 29 29.58 29 34 C19.43 34 9.86 34 0 34 C0.06762355 41.73007099 0.13801342 49.45921524 0.2355423 57.18881989 C0.28015377 60.78853728 0.31959892 64.38813959 0.34643555 67.98803711 C0.37249823 71.45715697 0.41292056 74.92584275 0.46318626 78.39469337 C0.48792221 80.35821845 0.49789227 82.32191158 0.50764465 84.28556824 C0.53733589 86.08686943 0.53733589 86.08686943 0.56762695 87.92456055 C0.58428154 89.50674629 0.58428154 89.50674629 0.60127258 91.12089539 C1.06184215 94.44654572 2.01250444 96.31252232 4 99 C8.65297547 102.10198365 13.54459389 101.51302495 19 101 C21.02813371 100.05836649 23.04072167 99.07760308 25 98 C27.1875 98.4375 27.1875 98.4375 29 100 C30.96350703 103.04682125 32.02240582 105.03654991 31.9375 108.6875 C30.45555457 112.3429654 28.13251522 113.44904665 24.6875 115.125 C14.76894072 118.35429837 5.41031126 117.43591828 -4.125 113.8125 C-8.87269435 110.81938834 -11.91582889 106.62625667 -15 102 C-15.92060362 97.84440505 -16.12219226 93.87420596 -16.11352539 89.62744141 C-16.11344986 88.38660797 -16.11337433 87.14577454 -16.11329651 85.86734009 C-16.10819113 84.52874714 -16.10297515 83.19015461 -16.09765625 81.8515625 C-16.09578906 80.47008312 -16.09436658 79.08860308 -16.09336853 77.7071228 C-16.08956702 74.08711897 -16.07975716 70.46715583 -16.06866455 66.84716797 C-16.05839935 63.14681549 -16.05386 59.44645639 -16.04882812 55.74609375 C-16.03813257 48.49737521 -16.02055516 41.24869851 -16 34 C-21.28 34 -26.56 34 -32 34 C-32 29.71 -32 25.42 -32 21 C-26.4484167 19.88968334 -21.64927335 19.93193647 -16 20 C-16 13.73 -16 7.46 -16 1 C-5.625 -1.125 -5.625 -1.125 0 0 Z " fill="#4F80A3" transform="translate(274,222)"/>
<path d="M0 0 C0.99 0.66 1.98 1.32 3 2 C3.33 1.67 3.66 1.34 4 1 C5.99958364 0.95919217 8.00045254 0.95745644 10 1 C9.19175781 1.58136719 8.38351563 2.16273438 7.55078125 2.76171875 C3.46995478 6.84254522 4.21730527 12.3912522 4.1875 17.8125 C4.16236328 18.88693359 4.13722656 19.96136719 4.11132812 21.06835938 C4.05256705 23.71260771 4.01620624 26.35520488 4 29 C4.66 29 5.32 29 6 29 C6.08096803 30.45742463 6.13917774 31.91612807 6.1875 33.375 C6.23970703 34.59316406 6.23970703 34.59316406 6.29296875 35.8359375 C6.19628906 36.55007812 6.09960938 37.26421875 6 38 C2.74610012 40.16926659 1.86604043 40.24080049 -1.88671875 40.1953125 C-2.82451172 40.18886719 -3.76230469 40.18242187 -4.72851562 40.17578125 C-5.70498047 40.15902344 -6.68144531 40.14226562 -7.6875 40.125 C-8.67556641 40.11597656 -9.66363281 40.10695312 -10.68164062 40.09765625 C-13.12133765 40.0740843 -15.56054697 40.04118022 -18 40 C-19.78027377 32.71951916 -20.27206338 25.59498175 -20.375 18.125 C-20.40078125 17.20952393 -20.4265625 16.29404785 -20.453125 15.35083008 C-20.46559167 11.11333165 -20.40485053 8.67012733 -18.17578125 4.98046875 C-12.97632014 0.24774562 -6.82349229 -1.01823431 0 0 Z " fill="#5E8FB6" transform="translate(70,168)"/>
<path d="M0 0 C5.63327452 -0.29880083 8.86333091 0.66100783 13.40234375 4.05078125 C15.32822533 5.33330064 16.93342886 5.80949139 19.19140625 6.2421875 C19.52140625 5.5821875 19.85140625 4.9221875 20.19140625 4.2421875 C23.19140625 9.9921875 23.19140625 9.9921875 23.19140625 12.2421875 C24.18140625 12.2421875 25.17140625 12.2421875 26.19140625 12.2421875 C26.19140625 12.9021875 26.19140625 13.5621875 26.19140625 14.2421875 C27.11953125 14.3865625 28.04765625 14.5309375 29.00390625 14.6796875 C33.16235057 15.41353062 35.36553266 16.14718309 38.19140625 19.2421875 C38.19140625 18.5821875 38.19140625 17.9221875 38.19140625 17.2421875 C37.53140625 17.2421875 36.87140625 17.2421875 36.19140625 17.2421875 C36.19140625 16.5821875 36.19140625 15.9221875 36.19140625 15.2421875 C37.51140625 15.2421875 38.83140625 15.2421875 40.19140625 15.2421875 C40.19140625 16.2321875 40.19140625 17.2221875 40.19140625 18.2421875 C41.08859375 18.335 41.08859375 18.335 42.00390625 18.4296875 C45.05233415 19.56196072 45.60746539 21.48750774 47.19140625 24.2421875 C48.18140625 24.5721875 49.17140625 24.9021875 50.19140625 25.2421875 C50.19140625 25.9021875 50.19140625 26.5621875 50.19140625 27.2421875 C47.93252392 28.37162866 46.6374026 28.40756672 44.12890625 28.4296875 C43.41605469 28.44386719 42.70320313 28.45804687 41.96875 28.47265625 C34.82571682 27.8799151 28.58600141 25.83118293 22.19140625 22.6796875 C21.1072644 22.15785889 21.1072644 22.15785889 20.0012207 21.62548828 C13.30557229 18.37064914 6.73498515 14.88289166 0.17578125 11.36328125 C-5.09500315 8.54073801 -10.44248554 5.87871465 -15.80859375 3.2421875 C-15.80859375 2.5821875 -15.80859375 1.9221875 -15.80859375 1.2421875 C-10.54222906 0.77993605 -5.26653713 0.45413811 0 0 Z " fill="#236D95" transform="translate(61.80859375,304.7578125)"/>
<path d="M0 0 C3.00479061 1.25199609 4.42285019 2.05833452 6.11328125 4.81640625 C7.11034439 7.27172915 7.23548367 9.04839834 7.1875 11.6875 C7.18105469 12.47511719 7.17460937 13.26273437 7.16796875 14.07421875 C7 16 7 16 6 17 C3.14122091 17.23701239 0.30116703 17.42219182 -2.5625 17.5625 C-3.36880859 17.60568359 -4.17511719 17.64886719 -5.00585938 17.69335938 C-7.00368805 17.79975262 -9.0018207 17.90040888 -11 18 C-10.23814629 20.00911887 -10.23814629 20.00911887 -9 22 C-5.62649951 23.08916154 -5.62649951 23.08916154 -2 23 C-0.63838689 22.03886134 0.69855198 21.04115841 2 20 C4.75 20.3125 4.75 20.3125 7 21 C6.69895795 23.80972581 5.95275592 25.05669289 4.125 27.25 C-0.5153998 29.84862389 -4.79580925 29.64954561 -10 29 C-12.97375673 27.78622174 -14.33926395 26.99582362 -16.09375 24.3515625 C-18.17476667 18.95168303 -17.62317217 12.67641972 -17 7 C-13.54377455 -0.5034783 -7.35896786 -0.64897984 0 0 Z M-11 8 C-11 8.99 -11 9.98 -11 11 C-7.04 11 -3.08 11 1 11 C0.4260261 6.79819816 0.4260261 6.79819816 -3 5 C-7.21174952 5 -8.0936485 5.19744677 -11 8 Z " fill="#5A89AB" transform="translate(349,304)"/>
<path d="M0 0 C1.98 0 3.96 0 6 0 C6.33 3.63 6.66 7.26 7 11 C7.66 10.67 8.32 10.34 9 10 C13.56606865 9.45278942 16.97418431 9.40160752 21 11.75 C24.0454172 15.17609435 24.12659058 18.25913383 24.1328125 22.73046875 C24.13474609 24.05788086 24.13474609 24.05788086 24.13671875 25.41210938 C24.13285156 26.32798828 24.12898438 27.24386719 24.125 28.1875 C24.13080078 29.5787207 24.13080078 29.5787207 24.13671875 30.99804688 C24.13542969 31.87912109 24.13414062 32.76019531 24.1328125 33.66796875 C24.13168457 34.47516357 24.13055664 35.2823584 24.12939453 36.11401367 C24 38 24 38 23 39 C21.33382885 39.04063832 19.66611905 39.042721 18 39 C17.97494385 38.44014404 17.9498877 37.88028809 17.92407227 37.3034668 C17.80796255 34.76458695 17.6853042 32.22606447 17.5625 29.6875 C17.52318359 28.80642578 17.48386719 27.92535156 17.44335938 27.01757812 C17.40146484 26.17001953 17.35957031 25.32246094 17.31640625 24.44921875 C17.27974854 23.66893311 17.24309082 22.88864746 17.20532227 22.0847168 C17.05874737 19.80670899 17.05874737 19.80670899 16 17 C13.70705512 16.14025199 13.70705512 16.14025199 11 16 C8.710846 17.4683411 8.710846 17.4683411 7 20 C6.33658498 23.5883694 6.33658498 23.5883694 6.3125 27.5 C6.02934884 35.71947361 6.02934884 35.71947361 5 39 C3.35 39 1.7 39 0 39 C0 26.13 0 13.26 0 0 Z " fill="#6D98AF" transform="translate(389,294)"/>
<path d="M0 0 C2.468866 2.468866 2.67350276 4.49674617 3.05078125 7.8984375 C2.97451321 11.05476082 1.53995084 13.30508602 0 16 C0.33 16.66 0.66 17.32 1 18 C1.04533688 20.02032471 1.03853094 22.04203403 1 24.0625 C0.96235323 26.04130858 0.95337573 28.02138259 1 30 C1.33 30.33 1.66 30.66 2 31 C2 32.98 2 34.96 2 37 C-1.96 37 -5.92 37 -10 37 C-11.58930136 29.96257359 -12.36462214 23.39492241 -12.375 16.1875 C-12.39949219 15.27291016 -12.42398438 14.35832031 -12.44921875 13.41601562 C-12.46809166 9.09097379 -12.41638802 6.67427442 -10.1015625 2.92578125 C-6.71372382 -0.17868802 -4.54360418 -0.28397526 0 0 Z " fill="#0E5F8A" transform="translate(62,170)"/>
<path d="M0 0 C2.35479253 2.20287043 2.68060052 3.64407307 2.9375 6.8125 C0.9575 7.8025 0.9575 7.8025 -1.0625 8.8125 C-1.454375 8.338125 -1.84625 7.86375 -2.25 7.375 C-4.54518842 5.3963893 -6.05491278 5.03256736 -9.0625 4.8125 C-11.76887529 5.78980219 -12.76506222 6.21762445 -14.0625 8.8125 C-14.57411632 13.15704518 -14.77757422 16.65738011 -12.4375 20.4375 C-10.06896094 22.08265446 -10.06896094 22.08265446 -6.9375 21.75 C-3.77075068 21.04555313 -3.77075068 21.04555313 -2.0625 17.8125 C0.375 18.1875 0.375 18.1875 2.9375 18.8125 C3.2675 19.4725 3.5975 20.1325 3.9375 20.8125 C-1.59160053 27.65112434 -1.59160053 27.65112434 -5.234375 28.05078125 C-11.01757224 28.21726723 -14.61484602 27.92657993 -19.0625 23.8125 C-22.12059004 17.61224871 -22.07307571 10.79103893 -19.875 4.3125 C-15.02125521 -2.38232039 -7.40432207 -2.87106366 0 0 Z " fill="#5684A2" transform="translate(381.0625,305.1875)"/>
<path d="M0 0 C9.24 0 18.48 0 28 0 C28 1.65 28 3.3 28 5 C24.37 5 20.74 5 17 5 C17 15.56 17 26.12 17 37 C15.35 37 13.7 37 12 37 C11 36 11 36 10.88647461 33.04077148 C10.89171143 31.74727783 10.89694824 30.45378418 10.90234375 29.12109375 C10.9037587 28.4344313 10.90517365 27.74776886 10.90663147 27.04029846 C10.91224521 24.83932199 10.92479993 22.63844591 10.9375 20.4375 C10.94251324 18.94856917 10.94707645 17.45963676 10.95117188 15.97070312 C10.96221907 12.31376925 10.97949287 8.65689442 11 5 C7.37 5 3.74 5 0 5 C0 3.35 0 1.7 0 0 Z " fill="#497999" transform="translate(304,296)"/>
<path d="M0 0 C0.33 0 0.66 0 1 0 C1.06058594 1.25554687 1.12117188 2.51109375 1.18359375 3.8046875 C1.60148364 12.22891038 2.03797826 20.61666769 3 29 C1.68 29 0.36 29 -1 29 C-1 22 -1 15 -1 8 C-1.268125 8.78246094 -1.53625 9.56492188 -1.8125 10.37109375 C-3.41078098 13.90939342 -5.78671366 14.92475257 -9 17 C-10.09166275 18.93330603 -10.09166275 18.93330603 -11 21 C-11.845625 21.825 -12.69125 22.65 -13.5625 23.5 C-16.10990271 25.66701272 -16.10990271 25.66701272 -16.41015625 27.9375 C-17.21021221 30.73504667 -18.63027231 31.69106194 -20.875 33.5 C-25.85235699 37.49752901 -25.85235699 37.49752901 -28.5 43.125 C-29 45 -29 45 -32 47 C-32.79798218 49.41607417 -32.79798218 49.41607417 -33.1875 52.125 C-33.42533203 53.49011719 -33.42533203 53.49011719 -33.66796875 54.8828125 C-33.77753906 55.58148438 -33.88710938 56.28015625 -34 57 C-34.33 57 -34.66 57 -35 57 C-35.9075196 47.521462 -33.4652576 41.14826742 -27.46484375 33.83203125 C-25.58201068 31.59789389 -23.65935346 29.4013828 -21.73046875 27.20703125 C-18.59542038 23.60471398 -15.94148235 19.73152175 -13.33984375 15.73046875 C-12.89769531 15.15941406 -12.45554687 14.58835938 -12 14 C-11.34 14 -10.68 14 -10 14 C-9.75378906 13.44828125 -9.50757812 12.8965625 -9.25390625 12.328125 C-7.75017961 9.53615902 -5.92621901 7.21875464 -3.9375 4.75 C-3.22464844 3.85796875 -2.51179688 2.9659375 -1.77734375 2.046875 C-1.19082031 1.37140625 -0.60429688 0.6959375 0 0 Z " fill="#8EB5D4" transform="translate(49,178)"/>
<path d="M0 0 C0.66 0 1.32 0 2 0 C2.24234375 1.13695312 2.4846875 2.27390625 2.734375 3.4453125 C4.33279533 10.8426344 5.97707329 18.1781537 8.125 25.4375 C10.31574355 32.8722281 12.1666207 40.2104822 12 48 C10.04296875 47.26953125 10.04296875 47.26953125 8 46 C7.42578125 44.01171875 7.42578125 44.01171875 7.3125 41.6875 C7.1148901 38.36200762 6.69853901 35.25984871 6 32 C5.84660156 31.18660156 5.69320312 30.37320313 5.53515625 29.53515625 C4.05922697 20.40090115 4.05922697 20.40090115 -1 13 C-1.64834654 14.269553 -2.29357815 15.54069706 -2.9375 16.8125 C-3.29714844 17.52019531 -3.65679687 18.22789062 -4.02734375 18.95703125 C-5.9661721 23.02934943 -6.10673909 26.21935183 -6.0625 30.6875 C-6.05347656 31.86699219 -6.04445312 33.04648438 -6.03515625 34.26171875 C-6.02355469 35.16535156 -6.01195312 36.06898438 -6 37 C-6.99 36.67 -7.98 36.34 -9 36 C-9.495 34.515 -9.495 34.515 -10 33 C-10.66 32.67 -11.32 32.34 -12 32 C-11.68464959 26.11345895 -10.52509654 22.85881115 -7.2109375 18.03125 C-5.30124684 14.82789793 -4.71507394 11.64037643 -4 8 C-3.34 8 -2.68 8 -2 8 C-1.855625 6.865625 -1.71125 5.73125 -1.5625 4.5625 C-1 1 -1 1 0 0 Z " fill="#16547A" transform="translate(163,216)"/>
<path d="M0 0 C0 3.86695678 -1.41909971 6.5088452 -3 10 C-3.66 10 -4.32 10 -5 10 C-5.33 11.32 -5.66 12.64 -6 14 C-7.134375 14.28875 -8.26875 14.5775 -9.4375 14.875 C-10.613125 15.24625 -11.78875 15.6175 -13 16 C-13.33 16.66 -13.66 17.32 -14 18 C-14.66 18 -15.32 18 -16 18 C-16 18.66 -16 19.32 -16 20 C-16.886875 20.226875 -17.77375 20.45375 -18.6875 20.6875 C-23.08869465 22.43136958 -25.46677194 25.21123393 -28.5 28.75 C-30.52362978 30.43635815 -32.44115 30.54071923 -35 31 C-37.1385485 33.1385485 -37.42655063 34.13275314 -38 37 C-39.3303125 37.1546875 -39.3303125 37.1546875 -40.6875 37.3125 C-44.01382769 37.79369796 -44.01382769 37.79369796 -46.5 39.625 C-49.73261753 41.40293964 -51.50434456 40.89423744 -55 40 C-52.24220113 36.72128357 -48.58932866 35.03952451 -44.875 33.0625 C-34.95512807 27.64013907 -25.74825033 21.19107664 -16.79296875 14.30224609 C-16.07753906 13.75262207 -15.36210938 13.20299805 -14.625 12.63671875 C-13.65433594 11.88007935 -13.65433594 11.88007935 -12.6640625 11.1081543 C-11 10 -11 10 -9 10 C-9 9.34 -9 8.68 -9 8 C-4.52941176 4 -4.52941176 4 -2 4 C-1.34 2.68 -0.68 1.36 0 0 Z " fill="#A4C2E2" transform="translate(134,258)"/>
<path d="M0 0 C0.66 0.33 1.32 0.66 2 1 C2.05379226 3.95857409 2.09357093 6.91617721 2.125 9.875 C2.14175781 10.71675781 2.15851563 11.55851563 2.17578125 12.42578125 C2.18222656 13.23144531 2.18867188 14.03710938 2.1953125 14.8671875 C2.20578613 15.61081543 2.21625977 16.35444336 2.22705078 17.12060547 C2 19 2 19 0 21 C0.33 21.66 0.66 22.32 1 23 C0.01 23 -0.98 23 -2 23 C-1.34 25.64 -0.68 28.28 0 31 C-5.61 31 -11.22 31 -17 31 C-17 27.04 -17 23.08 -17 19 C-10.92641577 17.78528315 -6.15326364 18.39143546 0 19 C0 12.73 0 6.46 0 0 Z " fill="#43779E" transform="translate(259,224)"/>
<path d="M0 0 C7.93333333 -0.62222222 7.93333333 -0.62222222 12 1.75 C15.0454172 5.17609435 15.12659058 8.25913383 15.1328125 12.73046875 C15.13474609 14.05788086 15.13474609 14.05788086 15.13671875 15.41210938 C15.13285156 16.32798828 15.12898438 17.24386719 15.125 18.1875 C15.12886719 19.11498047 15.13273437 20.04246094 15.13671875 20.99804688 C15.13542969 21.87912109 15.13414062 22.76019531 15.1328125 23.66796875 C15.13168457 24.47516357 15.13055664 25.2823584 15.12939453 26.11401367 C15 28 15 28 14 29 C12.33382885 29.04063832 10.66611905 29.042721 9 29 C8.97494385 28.44014404 8.9498877 27.88028809 8.92407227 27.3034668 C8.80796255 24.76458695 8.6853042 22.22606447 8.5625 19.6875 C8.52318359 18.80642578 8.48386719 17.92535156 8.44335938 17.01757812 C8.38051758 15.74624023 8.38051758 15.74624023 8.31640625 14.44921875 C8.27974854 13.66893311 8.24309082 12.88864746 8.20532227 12.0847168 C8.05874737 9.80670899 8.05874737 9.80670899 7 7 C6.01 6.525625 5.02 6.05125 4 5.5625 C1 4 1 4 0.3125 1.90234375 C0.209375 1.27457031 0.10625 0.64679688 0 0 Z " fill="#6492AE" transform="translate(398,304)"/>
<path d="M0 0 C3.00479061 1.25199609 4.42285019 2.05833452 6.11328125 4.81640625 C7.11034439 7.27172915 7.23548367 9.04839834 7.1875 11.6875 C7.18105469 12.47511719 7.17460937 13.26273437 7.16796875 14.07421875 C7 16 7 16 6 17 C3.30345146 17.07319621 0.63308542 17.09242537 -2.0625 17.0625 C-2.82111328 17.05798828 -3.57972656 17.05347656 -4.36132812 17.04882812 C-6.24091871 17.0370068 -8.12046899 17.01907078 -10 17 C-10 16.67 -10 16.34 -10 16 C-5.05 16 -0.1 16 5 16 C5 13.03 5 10.06 5 7 C4.01 7 3.02 7 2 7 C2.33 9.64 2.66 12.28 3 15 C2.34 15 1.68 15 1 15 C1 14.01 1 13.02 1 12 C-0.65 12 -2.3 12 -4 12 C-4 11.67 -4 11.34 -4 11 C-2.35 11 -0.7 11 1 11 C0.43637698 8.95163118 0.43637698 8.95163118 -1 7 C-3.91666667 6 -3.91666667 6 -7 6 C-10.24849977 7.72226496 -10.24849977 7.72226496 -11 11 C-9.02 11 -7.04 11 -5 11 C-5 11.33 -5 11.66 -5 12 C-7.64 12.33 -10.28 12.66 -13 13 C-13.66 11.68 -14.32 10.36 -15 9 C-15.66 9 -16.32 9 -17 9 C-14.31064139 0.19846272 -8.38524797 -1.14469668 0 0 Z " fill="#6492AD" transform="translate(349,304)"/>
<path d="M0 0 C1.43861294 0.08746284 2.87597508 0.19565348 4.3125 0.3125 C5.11300781 0.37050781 5.91351563 0.42851562 6.73828125 0.48828125 C9.36272334 1.08206694 10.30820672 1.95780294 12 4 C12 3.34 12 2.68 12 2 C11.34 2 10.68 2 10 2 C10 1.34 10 0.68 10 0 C11.32 0 12.64 0 14 0 C14 0.99 14 1.98 14 3 C14.598125 3.061875 15.19625 3.12375 15.8125 3.1875 C18.8609279 4.31977322 19.41605914 6.24532024 21 9 C21.99 9.33 22.98 9.66 24 10 C24 10.66 24 11.32 24 12 C18.19370213 14.90314894 9.92371378 12.84293318 4 11 C0.94138204 9.78027716 -2.03995156 8.44153659 -5 7 C-1.28272326 5.86416544 0.47051709 6.33329974 4 8 C4.33 6.35 4.66 4.7 5 3 C2.525 2.01 2.525 2.01 0 1 C0 0.67 0 0.34 0 0 Z " fill="#296E99" transform="translate(88,320)"/>
<path d="M0 0 C2.35448675 -0.05454409 4.70767875 -0.0939279 7.0625 -0.125 C9.02896484 -0.15980469 9.02896484 -0.15980469 11.03515625 -0.1953125 C15.11824299 0.00582478 18.14999053 0.72834538 22 2 C22.33 3.32 22.66 4.64 23 6 C23.99 6 24.98 6 26 6 C26 6.66 26 7.32 26 8 C26.928125 8.12375 27.85625 8.2475 28.8125 8.375 C32 9 32 9 35 11 C34.67 11.99 34.34 12.98 34 14 C34 13.34 34 12.68 34 12 C32.576875 12.2784375 32.576875 12.2784375 31.125 12.5625 C28 13 28 13 26 12 C26 11.34 26 10.68 26 10 C25.01 10.33 24.02 10.66 23 11 C14.67359169 9.72890165 7.33512091 5.95558876 0 2 C0 1.34 0 0.68 0 0 Z " fill="#116089" transform="translate(46,306)"/>
<path d="M0 0 C1.74796875 -0.02126953 1.74796875 -0.02126953 3.53125 -0.04296875 C6.5 0.1875 6.5 0.1875 8.5 2.1875 C5.07310364 3.32979879 2.88897782 3.09611076 -0.6875 2.75 C-2.31751953 2.59724609 -2.31751953 2.59724609 -3.98046875 2.44140625 C-4.81191406 2.35761719 -5.64335937 2.27382812 -6.5 2.1875 C-6.5 5.4875 -6.5 8.7875 -6.5 12.1875 C-1.55 12.5175 3.4 12.8475 8.5 13.1875 C8.5 39.5875 8.5 65.9875 8.5 93.1875 C8.17 93.1875 7.84 93.1875 7.5 93.1875 C7.5 67.1175 7.5 41.0475 7.5 14.1875 C2.22 14.1875 -3.06 14.1875 -8.5 14.1875 C-8.83 15.1775 -9.16 16.1675 -9.5 17.1875 C-9.38660796 14.54069096 -9.25987127 11.89572482 -9.125 9.25 C-9.0940625 8.49525391 -9.063125 7.74050781 -9.03125 6.96289062 C-8.9273685 5.03242605 -8.72104386 3.10807919 -8.5 1.1875 C-5.65161879 -0.2366906 -3.17212092 0.01754492 0 0 Z " fill="#A0B7C3" transform="translate(183.5,241.8125)"/>
<path d="M0 0 C0.33 0 0.66 0 1 0 C1.12117187 0.85464844 1.24234375 1.70929688 1.3671875 2.58984375 C1.53476563 3.69457031 1.70234375 4.79929687 1.875 5.9375 C2.03742188 7.03964844 2.19984375 8.14179688 2.3671875 9.27734375 C2.57601562 10.17582031 2.78484375 11.07429688 3 12 C3.66 12.33 4.32 12.66 5 13 C5.33333333 15 5.66666667 17 6 19 C6.66 19.33 7.32 19.66 8 20 C9.32 16.7 10.64 13.4 12 10 C12.33 10 12.66 10 13 10 C13.33266291 16.20970773 12.45029331 20.28264895 10 26 C8.68 26 7.36 26 6 26 C5.71125 26.61875 5.4225 27.2375 5.125 27.875 C4 30 4 30 2 32 C0.4375 30.8125 0.4375 30.8125 -1 29 C-0.78793139 24.97069637 0.96643374 22.38927711 3 19 C3.70670728 16.30745009 3.70670728 16.30745009 4 14 C1.66924071 14.95865509 1.66924071 14.95865509 0 18 C-0.83288874 11.74692761 -1.03863773 6.23182639 0 0 Z " fill="#296B92" transform="translate(162,260)"/>
<path d="M0 0 C0.33 0 0.66 0 1 0 C1.10957031 0.62648438 1.21914063 1.25296875 1.33203125 1.8984375 C1.49058594 2.71570313 1.64914062 3.53296875 1.8125 4.375 C1.96332031 5.18710937 2.11414063 5.99921875 2.26953125 6.8359375 C2.87544942 9.35820641 2.87544942 9.35820641 6 11 C9.07665027 10.91778291 9.07665027 10.91778291 12 10 C12.66 9.01 13.32 8.02 14 7 C16.4375 7.375 16.4375 7.375 19 8 C19.33 8.66 19.66 9.32 20 10 C14.47089947 16.83862434 14.47089947 16.83862434 10.828125 17.23828125 C4.8203035 17.41123369 1.62854388 16.89772117 -3 13 C-2.67 11.02 -2.34 9.04 -2 7 C-1.34 7 -0.68 7 0 7 C0 4.69 0 2.38 0 0 Z " fill="#5587AA" transform="translate(365,316)"/>
<path d="M0 0 C1.16781006 0.00523682 2.33562012 0.01047363 3.53881836 0.01586914 C4.79887695 0.0190918 6.05893555 0.02231445 7.35717773 0.02563477 C8.6976732 0.03399136 10.03816799 0.04245632 11.37866211 0.05102539 C12.72306153 0.05603879 14.06746271 0.06060197 15.41186523 0.06469727 C18.71334151 0.07653051 22.01473014 0.09301568 25.31616211 0.11352539 C25.64616211 1.10352539 25.97616211 2.09352539 26.31616211 3.11352539 C16.74616211 3.11352539 7.17616211 3.11352539 -2.68383789 3.11352539 C-2.68383789 29.51352539 -2.68383789 55.91352539 -2.68383789 83.11352539 C-3.01383789 83.11352539 -3.34383789 83.11352539 -3.68383789 83.11352539 C-3.70696117 72.43932841 -3.7247529 61.76513733 -3.73565006 51.09092045 C-3.74087893 46.13498617 -3.74797663 41.17906898 -3.75927734 36.22314453 C-3.77010611 31.44453703 -3.7761147 26.66594601 -3.77871513 21.88732719 C-3.7805694 20.0599892 -3.78419005 18.23265215 -3.78956795 16.40532112 C-3.79677825 13.8549921 -3.79782884 11.30473202 -3.79736328 8.75439453 C-3.80095856 7.99122925 -3.80455383 7.22806396 -3.80825806 6.44177246 C-3.79576837 0.16055966 -3.79576837 0.16055966 0 0 Z " fill="#AFC4D4" transform="translate(209.683837890625,252.886474609375)"/>
<path d="M0 0 C-1.54665231 3.96160067 -4.04592451 5.98168181 -7.3125 8.625 C-8.25738281 9.40101563 -9.20226562 10.17703125 -10.17578125 10.9765625 C-12.76186603 12.82938673 -15.00351132 13.98479619 -18 15 C-18 15.66 -18 16.32 -18 17 C-20.51953125 18.76171875 -20.51953125 18.76171875 -23.8125 20.6875 C-24.89144531 21.33074219 -25.97039062 21.97398437 -27.08203125 22.63671875 C-30 24 -30 24 -33 23 C-32.360625 22.401875 -31.72125 21.80375 -31.0625 21.1875 C-28.79689611 19.09189663 -28.79689611 19.09189663 -28 16 C-25.36 15.67 -22.72 15.34 -20 15 C-19.979375 14.401875 -19.95875 13.80375 -19.9375 13.1875 C-19.628125 12.465625 -19.31875 11.74375 -19 11 C-17.88625 10.566875 -16.7725 10.13375 -15.625 9.6875 C-11.72544663 7.90925695 -11.72544663 7.90925695 -10.1875 4.375 C-9.795625 3.26125 -9.40375 2.1475 -9 1 C-6.04335481 -0.4783226 -3.25770263 -0.06032783 0 0 Z " fill="#A9C3DC" transform="translate(156,304)"/>
<path d="M0 0 C0.99 0 1.98 0 3 0 C3 2.97 3 5.94 3 9 C1.49759766 9.05607422 1.49759766 9.05607422 -0.03515625 9.11328125 C-9.88399463 9.51510949 -9.88399463 9.51510949 -19 13 C-19 9.37 -19 5.74 -19 2 C-17.68 2 -16.36 2 -15 2 C-14.67 2.99 -14.34 3.98 -14 5 C-12.1746875 4.7215625 -12.1746875 4.7215625 -10.3125 4.4375 C-6.97022061 4.01006818 -4.28031583 4.07741117 -1 5 C-1 5.99 -1 6.98 -1 8 C0.41577477 6.81575674 0.41577477 6.81575674 0.0625 3.4375 C0.0315625 1.7359375 0.0315625 1.7359375 0 0 Z " fill="#477A9C" transform="translate(351,311)"/>
<path d="M0 0 C3 0.25 3 0.25 5 2.25 C6.29193198 8.21276297 6.0905166 10.84159595 3 16.25 C3.33 16.91 3.66 17.57 4 18.25 C4.04533688 20.27032471 4.03853094 22.29203403 4 24.3125 C3.96235323 26.29130858 3.95337573 28.27138259 4 30.25 C4.33 30.58 4.66 30.91 5 31.25 C5.04080783 33.24958364 5.04254356 35.25045254 5 37.25 C4.01 37.25 3.02 37.25 2 37.25 C1.10075642 30.063608 0.70353944 22.92290051 0.4375 15.6875 C0.39431641 14.58341797 0.35113281 13.47933594 0.30664062 12.34179688 C0.20155613 9.64462815 0.09940587 6.94738297 0 4.25 C-2.475 3.26 -2.475 3.26 -5 2.25 C-3 0.25 -3 0.25 0 0 Z " fill="#3C779E" transform="translate(59,169.75)"/>
<path d="M0 0 C1.32 0 2.64 0 4 0 C4 3.96 4 7.92 4 12 C3.67 12 3.34 12 3 12 C3 9.03 3 6.06 3 3 C2.34 3 1.68 3 1 3 C1.11376617 5.12563103 1.24135631 7.2505261 1.375 9.375 C1.44460938 10.55835938 1.51421875 11.74171875 1.5859375 12.9609375 C1.70217346 16.10562319 1.70217346 16.10562319 4 18 C4.22705078 19.97119141 4.22705078 19.97119141 4.1953125 22.3515625 C4.18886719 23.20234375 4.18242187 24.053125 4.17578125 24.9296875 C4.15902344 25.81914062 4.14226562 26.70859375 4.125 27.625 C4.11597656 28.5221875 4.10695313 29.419375 4.09765625 30.34375 C4.0740497 32.56276586 4.0411231 34.78125077 4 37 C2.68 37 1.36 37 0 37 C0 24.79 0 12.58 0 0 Z " fill="#3C7294" transform="translate(390,295)"/>
<path d="M0 0 C9.24 0 18.48 0 28 0 C28 0.33 28 0.66 28 1 C23.38 1.33 18.76 1.66 14 2 C14 2.66 14 3.32 14 4 C13.34 4 12.68 4 12 4 C12 14.56 12 25.12 12 36 C11.67 36 11.34 36 11 36 C11 25.77 11 15.54 11 5 C7.37 5 3.74 5 0 5 C0 3.35 0 1.7 0 0 Z " fill="#81A3BD" transform="translate(304,296)"/>
<path d="M0 0 C0.33 0 0.66 0 1 0 C1.06058594 1.25554687 1.12117188 2.51109375 1.18359375 3.8046875 C1.60148364 12.22891038 2.03797826 20.61666769 3 29 C1.68 29 0.36 29 -1 29 C-1 22 -1 15 -1 8 C-1.28617188 8.80824219 -1.57234375 9.61648437 -1.8671875 10.44921875 C-2.42792969 11.71185547 -2.42792969 11.71185547 -3 13 C-5.125 13.8125 -5.125 13.8125 -7 14 C-7.7421875 12.328125 -7.7421875 12.328125 -8 10 C-6.3828125 7.421875 -6.3828125 7.421875 -4.125 4.75 C-3.38507812 3.85796875 -2.64515625 2.9659375 -1.8828125 2.046875 C-1.26148438 1.37140625 -0.64015625 0.6959375 0 0 Z " fill="#85AFD0" transform="translate(49,178)"/>
<path d="M0 0 C0.21824777 6.0018137 -0.4943096 11.19233704 -2 17 C-2.66 17 -3.32 17 -4 17 C-4 18.32 -4 19.64 -4 21 C-4.66 21 -5.32 21 -6 21 C-7.92809904 15.21570289 -7.77786652 9.05073901 -5.625 3.375 C-3.83343752 0.75656252 -3.16715271 0 0 0 Z " fill="#4D7896" transform="translate(367,306)"/>
<path d="M0 0 C0.33 0 0.66 0 1 0 C1.71469556 2.85878223 2.42834374 5.71776715 3.13671875 8.578125 C3.68199091 10.73947528 4.24482413 12.89653908 4.83203125 15.046875 C6.70815733 22.03382729 7.6286075 28.77705622 8 36 C6.04296875 35.26953125 6.04296875 35.26953125 4 34 C3.42578125 32.01171875 3.42578125 32.01171875 3.3125 29.6875 C3.06699286 25.55596561 2.39316958 21.70756134 1.46484375 17.67578125 C0.13165049 11.70110033 -0.23405633 6.11147073 0 0 Z " fill="#2A647E" transform="translate(167,228)"/>
<path d="M0 0 C4.65861421 1.47114133 4.65861421 1.47114133 6.15234375 3.78515625 C7.09386643 6.24526389 7.2352207 8.06286152 7.1875 10.6875 C7.18105469 11.47511719 7.17460937 12.26273437 7.16796875 13.07421875 C7 15 7 15 6 16 C3.30345146 16.07319621 0.63308542 16.09242537 -2.0625 16.0625 C-2.82111328 16.05798828 -3.57972656 16.05347656 -4.36132812 16.04882812 C-6.24091871 16.0370068 -8.12046899 16.01907078 -10 16 C-10 15.67 -10 15.34 -10 15 C-5.05 15 -0.1 15 5 15 C5 12.03 5 9.06 5 6 C4.01 6 3.02 6 2 6 C2.33 8.64 2.66 11.28 3 14 C2.34 14 1.68 14 1 14 C1 13.01 1 12.02 1 11 C-0.65 11 -2.3 11 -4 11 C-4 10.67 -4 10.34 -4 10 C-2.35 10 -0.7 10 1 10 C-0.15173355 7.53199953 -1.04783565 5.95216435 -3 4 C-1.68 3.67 -0.36 3.34 1 3 C0.67 2.01 0.34 1.02 0 0 Z " fill="#82A6BD" transform="translate(349,305)"/>
<path d="M0 0 C1.32 0 2.64 0 4 0 C4 0.99 4 1.98 4 3 C4.598125 3.061875 5.19625 3.12375 5.8125 3.1875 C8.8609279 4.31977322 9.41605914 6.24532024 11 9 C11.99 9.33 12.98 9.66 14 10 C14 10.66 14 11.32 14 12 C9.11132099 14.44433951 2.14846902 13.05609621 -3 12 C-3 11.67 -3 11.34 -3 11 C0.3 10.67 3.6 10.34 7 10 C7 9.34 7 8.68 7 8 C5.68 8 4.36 8 3 8 C2.67 6.02 2.34 4.04 2 2 C1.34 2 0.68 2 0 2 C0 1.34 0 0.68 0 0 Z " fill="#4B81A7" transform="translate(98,320)"/>
<path d="M0 0 C0.66 1.32 1.32 2.64 2 4 C1.57847656 4.45890625 1.15695313 4.9178125 0.72265625 5.390625 C-0.09912109 6.31101563 -0.09912109 6.31101563 -0.9375 7.25 C-1.48277344 7.85328125 -2.02804688 8.4565625 -2.58984375 9.078125 C-4.12151812 10.90500793 -4.12151812 10.90500793 -4.50390625 13.109375 C-5 15 -5 15 -8 17 C-8.79798218 19.41607417 -8.79798218 19.41607417 -9.1875 22.125 C-9.34605469 23.03507812 -9.50460937 23.94515625 -9.66796875 24.8828125 C-9.77753906 25.58148438 -9.88710937 26.28015625 -10 27 C-10.33 27 -10.66 27 -11 27 C-11.84983038 18.12399379 -9.73555891 11.89034527 -4.33203125 4.81640625 C-2.93633883 3.16875985 -1.47457005 1.57744703 0 0 Z " fill="#A0BED7" transform="translate(25,208)"/>
<path d="M0 0 C0.66 0.33 1.32 0.66 2 1 C2.33 11.56 2.66 22.12 3 33 C1.68 32.34 0.36 31.68 -1 31 C-1.02465622 26.74585377 -1.04283899 22.49174502 -1.05493164 18.23754883 C-1.05997101 16.78929927 -1.06680253 15.34105483 -1.07543945 13.89282227 C-1.08752247 11.81525412 -1.09323211 9.73775303 -1.09765625 7.66015625 C-1.10289307 6.40855713 -1.10812988 5.15695801 -1.11352539 3.86743164 C-1 1 -1 1 0 0 Z " fill="#236C96" transform="translate(58,174)"/>
<path d="M0 0 C0.40729228 2.32156597 0.74438677 4.6568787 1 7 C-1.27868586 5.86065707 -3.4543689 4.71872402 -5.625 3.375 C-13.93916377 -0.01225191 -24.265595 2.29520651 -33 3 C-33.33 2.34 -33.66 1.68 -34 1 C-29.79196298 0.66285491 -25.58352782 0.33095755 -21.375 0 C-20.18519531 -0.09539062 -18.99539062 -0.19078125 -17.76953125 -0.2890625 C-16.61582031 -0.37929688 -15.46210937 -0.46953125 -14.2734375 -0.5625 C-12.68668213 -0.68818359 -12.68668213 -0.68818359 -11.06787109 -0.81640625 C-2.64136461 -1.3206823 -2.64136461 -1.3206823 0 0 Z " fill="#568BB4" transform="translate(78,304)"/>
<path d="M0 0 C0.66 0.33 1.32 0.66 2 1 C1.67 1.886875 1.34 2.77375 1 3.6875 C-0.65048396 9.31309323 -0.15703422 15.19845814 0 21 C-0.99 20.67 -1.98 20.34 -3 20 C-3.33 19.01 -3.66 18.02 -4 17 C-4.66 16.67 -5.32 16.34 -6 16 C-5.64455443 9.36501601 -3.86904957 5.36812782 0 0 Z " fill="#15658F" transform="translate(157,232)"/>
<path d="M0 0 C4.95 0 9.9 0 15 0 C15 1.32 15 2.64 15 4 C10.38 4.33 5.76 4.66 1 5 C0.67 5.99 0.34 6.98 0 8 C-0.33 6.35 -0.66 4.7 -1 3 C-0.34 3 0.32 3 1 3 C0.67 2.01 0.34 1.02 0 0 Z " fill="#477DA1" transform="translate(317,297)"/>
<path d="M0 0 C1.27351308 2.54702616 0.80191925 3.4282945 0.0625 6.125 C-0.13214844 6.84945312 -0.32679688 7.57390625 -0.52734375 8.3203125 C-0.76130859 9.15175781 -0.76130859 9.15175781 -1 10 C-0.34 10.33 0.32 10.66 1 11 C0.34 12.98 -0.32 14.96 -1 17 C-2.65 17 -4.3 17 -6 17 C-7.41687119 12.74938644 -6.19320039 10.28148375 -5 6 C-4.34 6 -3.68 6 -3 6 C-2.690625 5.195625 -2.38125 4.39125 -2.0625 3.5625 C-1 1 -1 1 0 0 Z " fill="#4380AB" transform="translate(152,238)"/>
<path d="M0 0 C6.93 0 13.86 0 21 0 C21 0.99 21 1.98 21 3 C23.475 3.495 23.475 3.495 26 4 C26 4.66 26 5.32 26 6 C23.66974687 5.46224928 21.5135286 4.81696426 19.26953125 3.97265625 C15.77680019 2.93360006 12.94635375 2.76607446 9.3125 2.8125 C7.63607422 2.82216797 7.63607422 2.82216797 5.92578125 2.83203125 C2.93718849 2.8757518 2.93718849 2.8757518 0 4 C0 2.68 0 1.36 0 0 Z " fill="#6E92AC" transform="translate(211,216)"/>
<path d="M0 0 C9.24 0 18.48 0 28 0 C28.33 0.99 28.66 1.98 29 3 C19.1 3 9.2 3 -1 3 C-0.67 2.01 -0.34 1.02 0 0 Z " fill="#85A1BB" transform="translate(207,253)"/>
<path d="M0 0 C2.35448675 -0.05454409 4.70767875 -0.0939279 7.0625 -0.125 C9.02896484 -0.15980469 9.02896484 -0.15980469 11.03515625 -0.1953125 C17.48748206 0.12253606 23.26528746 2.13264373 29 5 C29.33 5.99 29.66 6.98 30 8 C28.5625 10.1875 28.5625 10.1875 27 12 C26.95875 11.236875 26.9175 10.47375 26.875 9.6875 C26.22176391 6.67594887 26.22176391 6.67594887 22.9375 5.1875 C21.968125 4.795625 20.99875 4.40375 20 4 C20 3.34 20 2.68 20 2 C18.97519531 2.01160156 17.95039063 2.02320313 16.89453125 2.03515625 C15.533856 2.04454022 14.17317876 2.05363977 12.8125 2.0625 C12.13896484 2.07087891 11.46542969 2.07925781 10.77148438 2.08789062 C7.04565869 2.10606538 3.6211958 1.89299392 0 1 C0 0.67 0 0.34 0 0 Z " fill="#7494AA" transform="translate(213,204)"/>
<path d="M0 0 C7.71022591 -0.26387939 14.96265347 0.75508878 22.5625 2 C23.76197266 2.19078125 24.96144531 2.3815625 26.19726562 2.578125 C29.13256081 3.04590112 32.06668387 3.51999701 35 4 C31.99117206 5.77629601 30.30693849 6.20991491 26.8828125 5.5390625 C25.72458984 5.32636719 25.72458984 5.32636719 24.54296875 5.109375 C23.74503906 4.94953125 22.94710937 4.7896875 22.125 4.625 C13.43703139 2.49985671 13.43703139 2.49985671 5 4 C5 3.34 5 2.68 5 2 C3.35 1.67 1.7 1.34 0 1 C0 0.67 0 0.34 0 0 Z " fill="#B4C7DA" transform="translate(67,167)"/>
<path d="M0 0 C0.66 0.33 1.32 0.66 2 1 C1.01 1.66 0.02 2.32 -1 3 C-0.67 2.01 -0.34 1.02 0 0 Z M-3 3 C-2.34 3 -1.68 3 -1 3 C-1 4.32 -1 5.64 -1 7 C-1.886875 7.103125 -2.77375 7.20625 -3.6875 7.3125 C-7.01382769 7.79369796 -7.01382769 7.79369796 -9.5 9.625 C-12.73261753 11.40293964 -14.50434456 10.89423744 -18 10 C-13.83874152 5.42261567 -10.04419798 4.7982903 -4 4 C-3.67 3.67 -3.34 3.34 -3 3 Z " fill="#93B9E0" transform="translate(97,288)"/>
<path d="M0 0 C0.66 0.66 1.32 1.32 2 2 C1.67 2.66 1.34 3.32 1 4 C3.31 4.33 5.62 4.66 8 5 C8.33 5.99 8.66 6.98 9 8 C7.88882813 7.73445312 6.77765625 7.46890625 5.6328125 7.1953125 C-2.21998544 5.32765819 -10.06309702 3.48207525 -18 2 C-18 1.67 -18 1.34 -18 1 C-12.33333333 1 -6.66666667 1 -1 1 C-0.67 0.67 -0.34 0.34 0 0 Z " fill="#B6CCE4" transform="translate(95,209)"/>
<path d="M0 0 C6.60722146 -0.60927247 10.82381689 -0.21455377 16.2109375 3.80859375 C18.13681908 5.09111314 19.74202261 5.56730389 22 6 C22.33 5.34 22.66 4.68 23 4 C23.66 5.98 24.32 7.96 25 10 C14.90882638 6.90009699 14.90882638 6.90009699 11 4 C11 3.34 11 2.68 11 2 C7.37 1.67 3.74 1.34 0 1 C0 0.67 0 0.34 0 0 Z " fill="#33749E" transform="translate(59,305)"/>
<path d="M0 0 C0 6.6 0 13.2 0 20 C-0.66 20.33 -1.32 20.66 -2 21 C-2.33 14.73 -2.66 8.46 -3 2 C-4.65 1.67 -6.3 1.34 -8 1 C-5 -1 -5 -1 0 0 Z " fill="#718EA6" transform="translate(274,222)"/>
<path d="M0 0 C1.74796875 -0.02126953 1.74796875 -0.02126953 3.53125 -0.04296875 C6.5 0.1875 6.5 0.1875 8.5 2.1875 C5.07310364 3.32979879 2.88897782 3.09611076 -0.6875 2.75 C-2.31751953 2.59724609 -2.31751953 2.59724609 -3.98046875 2.44140625 C-5.22763672 2.31572266 -5.22763672 2.31572266 -6.5 2.1875 C-6.5 5.4875 -6.5 8.7875 -6.5 12.1875 C-7.16 12.1875 -7.82 12.1875 -8.5 12.1875 C-8.5 8.5575 -8.5 4.9275 -8.5 1.1875 C-5.65161879 -0.2366906 -3.17212092 0.01754492 0 0 Z " fill="#8EA8B8" transform="translate(183.5,241.8125)"/>
<path d="M0 0 C0.33 0 0.66 0 1 0 C1.10957031 0.61488281 1.21914063 1.22976563 1.33203125 1.86328125 C1.49058594 2.67152344 1.64914062 3.47976563 1.8125 4.3125 C1.96332031 5.11300781 2.11414063 5.91351563 2.26953125 6.73828125 C3.07572236 9.23445587 4.02052002 10.32422106 6 12 C5.01 12.66 4.02 13.32 3 14 C3 14.66 3 15.32 3 16 C0.5625 15.1875 0.5625 15.1875 -2 14 C-3.04449911 10.86650268 -2.93423645 10.01031744 -2 7 C-1.34 7 -0.68 7 0 7 C0 4.69 0 2.38 0 0 Z " fill="#678EAB" transform="translate(365,316)"/>
<path d="M0 0 C0.66 0.33 1.32 0.66 2 1 C3.11375822 5.59425265 3.07441128 10.04348659 3 14.75 C2.71437659 19.54278093 2.71437659 19.54278093 4 24 C2.35 24 0.7 24 -1 24 C-1 23.01 -1 22.02 -1 21 C-0.34 21 0.32 21 1 21 C0.67 14.07 0.34 7.14 0 0 Z " fill="#4981A3" transform="translate(408,309)"/>
<path d="M0 0 C0.66 0 1.32 0 2 0 C2 0.99 2 1.98 2 3 C2.66 3 3.32 3 4 3 C4 9.6 4 16.2 4 23 C3.01 22.67 2.02 22.34 1 22 C1.01740234 20.49759766 1.01740234 20.49759766 1.03515625 18.96484375 C1.04454398 17.62239772 1.05364312 16.27994964 1.0625 14.9375 C1.07410156 13.62652344 1.08570313 12.31554687 1.09765625 10.96484375 C1.00452335 7.1836481 0.61448726 3.72079293 0 0 Z " fill="#84ABBC" transform="translate(409,309)"/>
<path d="M0 0 C-1.49291185 3.80013925 -3.62377323 5.74918216 -7 8 C-8.32 8 -9.64 8 -11 8 C-10.42415568 5.61435923 -9.77772405 3.33317216 -9 1 C-6.04335481 -0.4783226 -3.25770263 -0.06032783 0 0 Z " fill="#93B4D4" transform="translate(156,304)"/>
<path d="M0 0 C0.66 0.33 1.32 0.66 2 1 C2.107834 3.93847653 2.18721916 6.87301151 2.25 9.8125 C2.30027344 11.06256836 2.30027344 11.06256836 2.3515625 12.33789062 C2.44983418 18.45530283 2.44983418 18.45530283 0.27734375 21.0859375 C-2.35130192 22.14100283 -3.89395499 22.20498153 -6.6875 21.8125 C-7.47511719 21.71582031 -8.26273438 21.61914062 -9.07421875 21.51953125 C-9.70972656 21.34808594 -10.34523437 21.17664063 -11 21 C-11.33 20.34 -11.66 19.68 -12 19 C-8.04 19 -4.08 19 0 19 C0 12.73 0 6.46 0 0 Z " fill="#456F8C" transform="translate(259,224)"/>
<path d="M0 0 C1.65 0.33 3.3 0.66 5 1 C4.67 1.99 4.34 2.98 4 4 C3.96125079 5.66621616 3.9549714 7.33394172 4 9 C1 9 1 9 -2 8 C-2.33 8.66 -2.66 9.32 -3 10 C-3 8.35 -3 6.7 -3 5 C-2.34 4.67 -1.68 4.34 -1 4 C-0.34786708 1.97536745 -0.34786708 1.97536745 0 0 Z " fill="#0F5D84" transform="translate(54,172)"/>
<path d="M0 0 C3 1 3 1 4.6875 4.0625 C5.120625 5.031875 5.55375 6.00125 6 7 C-0.258654 7.5326514 -4.45108785 5.81849506 -10 3 C-6.28272326 1.86416544 -4.52948291 2.33329974 -1 4 C-0.67 2.68 -0.34 1.36 0 0 Z " fill="#1B638B" transform="translate(93,324)"/>
<path d="M0 0 C3.11743233 1.50098594 6.15501823 3.02431822 9 5 C9 5.99 9 6.98 9 8 C4 7 4 7 -1 6 C-1.042721 4.33388095 -1.04063832 2.66617115 -1 1 C-0.67 0.67 -0.34 0.34 0 0 Z " fill="#0F5D87" transform="translate(83,320)"/>
<path d="M0 0 C1.98 0.66 3.96 1.32 6 2 C3.09091772 3.93938819 0.59137621 4.96774957 -2.6875 6.125 C-4.17830078 6.65480469 -4.17830078 6.65480469 -5.69921875 7.1953125 C-6.45847656 7.46085937 -7.21773438 7.72640625 -8 8 C-8.33 7.34 -8.66 6.68 -9 6 C-8.34 6 -7.68 6 -7 6 C-6.67 4.68 -6.34 3.36 -6 2 C-4.35 2 -2.7 2 -1 2 C-0.67 1.34 -0.34 0.68 0 0 Z " fill="#97B7DA" transform="translate(73,296)"/>
<path d="M0 0 C0.33 0 0.66 0 1 0 C1.37992882 3.34218632 1.23536171 4.66954796 -0.75 7.45703125 C-1.86375 8.62298828 -1.86375 8.62298828 -3 9.8125 C-3.7425 10.60269531 -4.485 11.39289063 -5.25 12.20703125 C-5.8275 12.79871094 -6.405 13.39039063 -7 14 C-7.7421875 12.328125 -7.7421875 12.328125 -8 10 C-6.3828125 7.421875 -6.3828125 7.421875 -4.125 4.75 C-3.38507813 3.85796875 -2.64515625 2.9659375 -1.8828125 2.046875 C-1.26148438 1.37140625 -0.64015625 0.6959375 0 0 Z " fill="#89ACCC" transform="translate(141,251)"/>
<path d="M0 0 C0 0.99 0 1.98 0 3 C-4.62 3 -9.24 3 -14 3 C-13.67 2.01 -13.34 1.02 -13 0 C-8.34462607 -0.83796731 -4.62921525 -1.0161692 0 0 Z " fill="#5382A3" transform="translate(350,316)"/>
<path d="M0 0 C2.36300349 2.36300349 2.51433444 3.5798498 3.125 6.8125 C3.29257812 7.66457031 3.46015625 8.51664063 3.6328125 9.39453125 C3.995552 11.96843811 4.06523407 14.40461588 4 17 C2.68 17 1.36 17 0 17 C0 11.33333333 0 5.66666667 0 0 Z " fill="#92BBDF" transform="translate(48,190)"/>
<path d="M0 0 C0.99 0 1.98 0 3 0 C3 0.66 3 1.32 3 2 C4.3921875 2.185625 4.3921875 2.185625 5.8125 2.375 C9 3 9 3 12 5 C11.67 5.99 11.34 6.98 11 8 C11 7.34 11 6.68 11 6 C9.576875 6.2784375 9.576875 6.2784375 8.125 6.5625 C5 7 5 7 3 6 C3 5.34 3 4.68 3 4 C2.34 3.67 1.68 3.34 1 3 C0.67 2.01 0.34 1.02 0 0 Z " fill="#0B618F" transform="translate(69,312)"/>
<path d="M0 0 C1.485 0.99 1.485 0.99 3 2 C2.67 2.33 2.34 2.66 2 3 C1.76807135 4.51469448 1.58784762 6.03754562 1.4375 7.5625 C1.293125 9.026875 1.14875 10.49125 1 12 C4.3 11.67 7.6 11.34 11 11 C11 11.66 11 12.32 11 13 C7.04 13 3.08 13 -1 13 C-1.09765625 3.72265625 -1.09765625 3.72265625 -1 1 C-0.67 0.67 -0.34 0.34 0 0 Z " fill="#517590" transform="translate(243,242)"/>
<path d="M0 0 C-0.33 1.32 -0.66 2.64 -1 4 C-5.76307437 4.95261487 -10.1666528 5.08333357 -15 5 C-12.30932731 3.20621821 -9.91421743 2.02686042 -6.9375 0.8125 C-5.62072266 0.26529297 -5.62072266 0.26529297 -4.27734375 -0.29296875 C-2 -1 -2 -1 0 0 Z " fill="#6693BA" transform="translate(81,299)"/>
<path d="M0 0 C0.99 0.33 1.98 0.66 3 1 C2.12499183 2.34709162 1.22409067 3.67738986 0.3125 5 C-0.18636719 5.7425 -0.68523437 6.485 -1.19921875 7.25 C-3 9 -3 9 -5.70703125 9.25 C-6.46371094 9.1675 -7.22039062 9.085 -8 9 C-7.67 7.35 -7.34 5.7 -7 4 C-5.68 4 -4.36 4 -3 4 C-1.22590192 2.07977297 -1.22590192 2.07977297 0 0 Z " fill="#5886A7" transform="translate(168,286)"/>
<path d="M0 0 C1.11375 0.3403125 1.11375 0.3403125 2.25 0.6875 C1.68628586 3.95704202 0.75037734 5.51325883 -1.75 7.6875 C-2.41 7.3575 -3.07 7.0275 -3.75 6.6875 C-3.42 6.0275 -3.09 5.3675 -2.75 4.6875 C-4.07 4.6875 -5.39 4.6875 -6.75 4.6875 C-6.75 2.6875 -6.75 2.6875 -5.0625 1 C-2.75 -0.3125 -2.75 -0.3125 0 0 Z " fill="#7799B0" transform="translate(353.75,324.3125)"/>
<path d="M0 0 C1.32 0.33 2.64 0.66 4 1 C4 1.66 4 2.32 4 3 C3.34 3 2.68 3 2 3 C2.99 5.64 3.98 8.28 5 11 C2.625 10.375 2.625 10.375 0 9 C-1.4375 6.0625 -1.4375 6.0625 -2 3 C-1.34 2.01 -0.68 1.02 0 0 Z " fill="#5F88A8" transform="translate(334,321)"/>
<path d="M0 0 C3.63 0.33 7.26 0.66 11 1 C11 1.66 11 2.32 11 3 C11.66 3 12.32 3 13 3 C13 3.66 13 4.32 13 5 C13.66 5.33 14.32 5.66 15 6 C10.83513802 6.30017023 8.34984273 5.45324946 4.6875 3.5 C3.80449219 3.0359375 2.92148437 2.571875 2.01171875 2.09375 C1.34785156 1.7328125 0.68398438 1.371875 0 1 C0 0.67 0 0.34 0 0 Z " fill="#4A7F98" transform="translate(61,315)"/>
<path d="M0 0 C0.33 0 0.66 0 1 0 C1.125 7.625 1.125 7.625 0 11 C-2.5625 12.1875 -2.5625 12.1875 -5 13 C-5.33 12.01 -5.66 11.02 -6 10 C-5.34 10 -4.68 10 -4 10 C-2.68 6.7 -1.36 3.4 0 0 Z " fill="#226488" transform="translate(174,270)"/>
<path d="M0 0 C0.99552499 3.09718886 0.89921243 4.90271275 0 8 C0 8.99 0 9.98 0 11 C-0.99 11.495 -0.99 11.495 -2 12 C-4 9 -4 9 -3.8125 6.5625 C-2.95218569 3.84920103 -1.83477535 2.15386671 0 0 Z " fill="#6B99B9" transform="translate(146,246)"/>
<path d="M0 0 C5.44736842 0.48421053 5.44736842 0.48421053 7.875 2.75 C9.18152386 5.36304771 9.24038873 7.11533524 9 10 C8.566875 9.505 8.13375 9.01 7.6875 8.5 C6.00259517 6.66781808 6.00259517 6.66781808 3 7 C3 5.35 3 3.7 3 2 C2.01 1.67 1.02 1.34 0 1 C0 0.67 0 0.34 0 0 Z " fill="#87AAC8" transform="translate(149,193)"/>
<path d="M0 0 C3.96 0 7.92 0 12 0 C11.34 1.32 10.68 2.64 10 4 C3.375 3.375 3.375 3.375 0 0 Z " fill="#447DA4" transform="translate(340,328)"/>
<path d="M0 0 C1.32 0 2.64 0 4 0 C4 2.97 4 5.94 4 9 C2.02 9 0.04 9 -2 9 C-1.484375 8.071875 -0.96875 7.14375 -0.4375 6.1875 C1.40096246 3.07242053 1.40096246 3.07242053 0 0 Z " fill="#3E769C" transform="translate(297,244)"/>
<path d="M0 0 C3.125 0.6875 3.125 0.6875 6 2 C6.33 2.99 6.66 3.98 7 5 C8.32 5 9.64 5 11 5 C11 5.66 11 6.32 11 7 C9.22739369 6.54857225 7.4569632 6.08859477 5.6875 5.625 C4.20830078 5.24214844 4.20830078 5.24214844 2.69921875 4.8515625 C0 4 0 4 -3 2 C-2.01 1.34 -1.02 0.68 0 0 Z " fill="#BFD2E8" transform="translate(119,218)"/>
<path d="M0 0 C0.66 0.33 1.32 0.66 2 1 C3.60019055 7.03148746 2.41386933 10.49637792 0 16 C-0.33 16 -0.66 16 -1 16 C-1.02701408 13.89590361 -1.04640223 11.79170822 -1.0625 9.6875 C-1.07410156 8.51574219 -1.08570313 7.34398437 -1.09765625 6.13671875 C-1 3 -1 3 0 0 Z " fill="#6790AD" transform="translate(161,208)"/>
<path d="M0 0 C0.66 0 1.32 0 2 0 C1.65203317 3.13170151 1.18725914 4.76754038 -0.8125 7.25 C-2.97650817 8.98120654 -4.29222168 9.61317453 -7 10 C-5.79618552 7.50638429 -4.54571278 5.31856917 -3 3 C-2.34 3 -1.68 3 -1 3 C-0.67 2.01 -0.34 1.02 0 0 Z " fill="#9ABBD2" transform="translate(40,189)"/>
<path d="M0 0 C0.93065133 2.60582371 1.14917407 3.64198224 0.0625 6.25 C-0.4634375 7.11625 -0.4634375 7.11625 -1 8 C0.32 8.33 1.64 8.66 3 9 C1.68 10.32 0.36 11.64 -1 13 C-1.66 12.67 -2.32 12.34 -3 12 C-3.36923077 4.61538462 -3.36923077 4.61538462 -1.5 1.5 C-1.005 1.005 -0.51 0.51 0 0 Z " fill="#2E7596" transform="translate(53,172)"/>
<path d="M0 0 C-1.11878383 1.17262904 -2.24523051 2.33795138 -3.375 3.5 C-4.00148437 4.1496875 -4.62796875 4.799375 -5.2734375 5.46875 C-7 7 -7 7 -9 7 C-8.66753345 3.92468444 -8.36895244 2.38167494 -6.1875 0.125 C-3.54353096 -1.2347555 -2.74572053 -0.84040922 0 0 Z " fill="#7A9FBA" transform="translate(165,296)"/>
<path d="M0 0 C0.33 0 0.66 0 1 0 C3.2 13.2 3.2 13.2 0 18 C-0.83288874 11.74692761 -1.03863773 6.23182639 0 0 Z " fill="#1F6B96" transform="translate(162,260)"/>
<path d="M0 0 C0.99 0 1.98 0 3 0 C3.20625 0.804375 3.4125 1.60875 3.625 2.4375 C4.07875 3.283125 4.5325 4.12875 5 5 C8.05272465 5.89830839 8.05272465 5.89830839 11 6 C11 6.33 11 6.66 11 7 C8.36 7.33 5.72 7.66 3 8 C2.34 6.68 1.68 5.36 1 4 C0.34 4 -0.32 4 -1 4 C-0.67 2.68 -0.34 1.36 0 0 Z " fill="#739AB3" transform="translate(333,309)"/>
<path d="M0 0 C0.33 0 0.66 0 1 0 C1 4.62 1 9.24 1 14 C0.67 14 0.34 14 0 14 C0 11.69 0 9.38 0 7 C-0.99 7 -1.98 7 -3 7 C-2.25 2.25 -2.25 2.25 0 0 Z " fill="#71A2C7" transform="translate(49,178)"/>
<path d="M0 0 C0.99 0 1.98 0 3 0 C3.3125 2.3125 3.3125 2.3125 3 5 C0.6875 6.875 0.6875 6.875 -2 8 C-2.99 7.67 -3.98 7.34 -5 7 C-4.0409375 6.1028125 -4.0409375 6.1028125 -3.0625 5.1875 C-0.79689611 3.09189663 -0.79689611 3.09189663 0 0 Z " fill="#94B6D5" transform="translate(128,320)"/>
<path d="M0 0 C1.875 0.3125 1.875 0.3125 4 1 C4.66 1.99 5.32 2.98 6 4 C8.05003955 5.19232613 8.05003955 5.19232613 10 6 C8.02 6.99 8.02 6.99 6 8 C4.99403703 7.0479279 3.99538437 6.08812654 3 5.125 C2.443125 4.59132813 1.88625 4.05765625 1.3125 3.5078125 C0 2 0 2 0 0 Z " fill="#6287A2" transform="translate(262,327)"/>
<path d="M0 0 C0.33 1.65 0.66 3.3 1 5 C-0.98 5 -2.96 5 -5 5 C-5.33 3.68 -5.66 2.36 -6 1 C-3 0 -3 0 0 0 Z " fill="#1E6789" transform="translate(80,318)"/>
<path d="M0 0 C2.97 0 5.94 0 9 0 C9.33 0.99 9.66 1.98 10 3 C6.37 3 2.74 3 -1 3 C-0.67 2.01 -0.34 1.02 0 0 Z " fill="#5B8AAC" transform="translate(322,298)"/>
<path d="M0 0 C0.33 0.66 0.66 1.32 1 2 C2.98 1.34 4.96 0.68 7 0 C6.43628586 3.26954202 5.50037734 4.82575883 3 7 C1.5 5.75 1.5 5.75 0 4 C0 2.68 0 1.36 0 0 Z " fill="#3475A0" transform="translate(161,285)"/>
<path d="M0 0 C0.33 0.99 0.66 1.98 1 3 C1.66 3 2.32 3 3 3 C3 5.97 3 8.94 3 12 C0.9375 10.5 0.9375 10.5 -1 8 C-1.05928384 5.17593353 -0.55954815 2.79774073 0 0 Z " fill="#28719A" transform="translate(152,240)"/>
<path d="M0 0 C0.66 0.33 1.32 0.66 2 1 C0.78521149 2.18163051 -0.44752408 3.34482835 -1.6875 4.5 C-2.37199219 5.1496875 -3.05648437 5.799375 -3.76171875 6.46875 C-6.40656372 8.27813784 -7.86162389 8.3077917 -11 8 C-7.45960866 5.0843836 -3.8373228 2.49872182 0 0 Z " fill="#B7CCE3" transform="translate(99,285)"/>
<path d="M0 0 C1.95216435 3.90432869 2.50639991 6.72213252 3 11 C1.35 11.33 -0.3 11.66 -2 12 C-1.34 8.04 -0.68 4.08 0 0 Z " fill="#E8EEF6" transform="translate(67,260)"/>
<path d="M0 0 C3.63 0.66 7.26 1.32 11 2 C10.01 2.99 9.02 3.98 8 5 C5.36 4.01 2.72 3.02 0 2 C0 1.34 0 0.68 0 0 Z " fill="#B9CCE2" transform="translate(110,174)"/>
<path d="M0 0 C2.875 -0.125 2.875 -0.125 6 0 C8 2 8 2 8 5 C7.236875 4.690625 6.47375 4.38125 5.6875 4.0625 C3.81210323 3.32106407 1.91315348 2.63771783 0 2 C0 1.34 0 0.68 0 0 Z " fill="#3F7090" transform="translate(46,306)"/>
<path d="M0 0 C2.64 0 5.28 0 8 0 C4.67692308 3.93846154 4.67692308 3.93846154 1.25 4.25 C0.5075 4.1675 -0.235 4.085 -1 4 C-0.67 2.68 -0.34 1.36 0 0 Z " fill="#72A1CE" transform="translate(81,298)"/>
<path d="M0 0 C2.1519437 3.22791555 2.20086443 4.28400809 2 8 C0.0625 7.3125 0.0625 7.3125 -2 6 C-2.75 3.375 -2.75 3.375 -3 1 C-2.01 0.67 -1.02 0.34 0 0 Z " fill="#094B6C" transform="translate(173,256)"/>
<path d="M0 0 C0.33 0 0.66 0 1 0 C1.33 2.97 1.66 5.94 2 9 C1.01 9 0.02 9 -1 9 C-0.67 9.99 -0.34 10.98 0 12 C-0.66 12.66 -1.32 13.32 -2 14 C-3.04449911 10.86650268 -2.93423645 10.01031744 -2 7 C-1.34 7 -0.68 7 0 7 C0 4.69 0 2.38 0 0 Z " fill="#86A8C0" transform="translate(365,316)"/>
<path d="M0 0 C2.125 0.9375 2.125 0.9375 4 2 C4 2.66 4 3.32 4 4 C0.7 4 -2.6 4 -6 4 C-2 1 -2 1 0 0 Z " fill="#6E8FA5" transform="translate(299,320)"/>
<path d="M0 0 C3.875 1.75 3.875 1.75 5 4 C4.67 4.66 4.34 5.32 4 6 C2.35 5.67 0.7 5.34 -1 5 C-0.67 3.35 -0.34 1.7 0 0 Z " fill="#5A84A7" transform="translate(274,319)"/>
<path d="M0 0 C-4.39453125 4.00390625 -4.39453125 4.00390625 -6 5 C-6.99 4.67 -7.98 4.34 -9 4 C-8 1 -8 1 -6.1875 -0.25 C-3.66056586 -1.11637742 -2.47778006 -0.88492145 0 0 Z " fill="#B5CBE1" transform="translate(148,313)"/>
<path d="M0 0 C1.98 0 3.96 0 6 0 C6.66 1.32 7.32 2.64 8 4 C5.36 3.67 2.72 3.34 0 3 C0 2.01 0 1.02 0 0 Z " fill="#427BA0" transform="translate(343,305)"/>
<path d="M0 0 C0.66 0.33 1.32 0.66 2 1 C1.67 2.65 1.34 4.3 1 6 C-1.31 6 -3.62 6 -6 6 C-4 4 -2 2 0 0 Z " fill="#B5CDE6" transform="translate(117,272)"/>
<path d="M0 0 C0 0.33 0 0.66 0 1 C-4.95 1 -9.9 1 -15 1 C-15 0.67 -15 0.34 -15 0 C-9.38963576 -1.62077189 -5.53754923 -2.55579195 0 0 Z " fill="#487390" transform="translate(191,254)"/>
<path d="M0 0 C1.43655854 -0.08131463 2.8744483 -0.13933559 4.3125 -0.1875 C5.51326172 -0.23970703 5.51326172 -0.23970703 6.73828125 -0.29296875 C9.47851584 0.06198392 10.29171079 0.89366282 12 3 C9.18185434 4.40907283 7.82722796 3.50872691 4.875 2.5625 C3.96492188 2.27503906 3.05484375 1.98757812 2.1171875 1.69140625 C1.41851562 1.46324219 0.71984375 1.23507813 0 1 C0 0.67 0 0.34 0 0 Z " fill="#C6D5E8" transform="translate(92,213)"/>
<path d="M0 0 C0.66 0.33 1.32 0.66 2 1 C1.67 3.64 1.34 6.28 1 9 C0.34 9 -0.32 9 -1 9 C-1.33 7.02 -1.66 5.04 -2 3 C-1.34 3 -0.68 3 0 3 C0 2.01 0 1.02 0 0 Z " fill="#5886AA" transform="translate(362,318)"/>
<path d="M0 0 C0.33 0.99 0.66 1.98 1 3 C-0.9375 6.1875 -0.9375 6.1875 -3 9 C-3.66 8.67 -4.32 8.34 -5 8 C-3.8141763 4.62496331 -2.72426311 2.35277269 0 0 Z " fill="#73A5C7" transform="translate(157,229)"/>
<path d="M0 0 C2.31 0.33 4.62 0.66 7 1 C7.33 2.65 7.66 4.3 8 6 C2.25 3.375 2.25 3.375 0 0 Z " fill="#186894" transform="translate(85,320)"/>
<path d="M0 0 C0.66 1.32 1.32 2.64 2 4 C-0.375 5.5625 -0.375 5.5625 -3 7 C-3.66 6.67 -4.32 6.34 -5 6 C-3.35 4.02 -1.7 2.04 0 0 Z " fill="#A4C3D7" transform="translate(25,208)"/>
<path d="M0 0 C2.4375 0.375 2.4375 0.375 5 1 C5.33 1.66 5.66 2.32 6 3 C5.01 3.99 4.02 4.98 3 6 C2.67 4.68 2.34 3.36 2 2 C1.34 2 0.68 2 0 2 C0 1.34 0 0.68 0 0 Z " fill="#7496AC" transform="translate(379,323)"/>
<path d="M0 0 C3.12290635 0.48578543 5.99580359 0.9986012 9 2 C9.33 1.34 9.66 0.68 10 0 C9.6875 1.9375 9.6875 1.9375 9 4 C8.01 4.33 7.02 4.66 6 5 C5.566875 4.54625 5.13375 4.0925 4.6875 3.625 C2.89201658 1.79975666 2.89201658 1.79975666 0 0 Z " fill="#8DABBD" transform="translate(374,309)"/>
<path d="M0 0 C1.62463842 -0.05395478 3.24978541 -0.09277195 4.875 -0.125 C5.77992187 -0.14820313 6.68484375 -0.17140625 7.6171875 -0.1953125 C10 0 10 0 12 2 C10.37585622 2.19477739 8.75063577 2.38059458 7.125 2.5625 C6.22007813 2.66691406 5.31515625 2.77132813 4.3828125 2.87890625 C2 3 2 3 0 2 C0 1.34 0 0.68 0 0 Z " fill="#A9C2DE" transform="translate(40,303)"/>
<path d="M0 0 C-0.33 1.65 -0.66 3.3 -1 5 C-3.97 4.505 -3.97 4.505 -7 4 C-3.17391304 0 -3.17391304 0 0 0 Z " fill="#A5BFD6" transform="translate(86,294)"/>
<path d="M0 0 C0 2.62113708 -0.31292445 4.50935112 -1 7 C-2.98 7.33 -4.96 7.66 -7 8 C-5.625 6 -5.625 6 -4 4 C-3.34 4 -2.68 4 -2 4 C-1.34 2.68 -0.68 1.36 0 0 Z " fill="#B3C8DD" transform="translate(134,258)"/>
<path d="M0 0 C0.33 0.99 0.66 1.98 1 3 C2.65 3.33 4.3 3.66 6 4 C6 4.66 6 5.32 6 6 C2.58978257 5.21302675 -0.68885166 4.12880057 -4 3 C-2.68 2.01 -1.36 1.02 0 0 Z " fill="#789AB4" transform="translate(231,216)"/>
<path d="M0 0 C0.66 0 1.32 0 2 0 C2.625 2.375 2.625 2.375 3 5 C2.34 5.66 1.68 6.32 1 7 C-1.125 6.625 -1.125 6.625 -3 6 C-2.01 6 -1.02 6 0 6 C-0.33 5.01 -0.66 4.02 -1 3 C-0.67 2.01 -0.34 1.02 0 0 Z " fill="#4E7C9E" transform="translate(379,325)"/>
<path d="M0 0 C2.62386487 3.06117568 3 3.73173127 3 8 C2.34 8 1.68 8 1 8 C-1 5 -1 5 -0.625 2.3125 C-0.41875 1.549375 -0.2125 0.78625 0 0 Z " fill="#7E9FB6" transform="translate(303,324)"/>
<path d="M0 0 C0.66 0.66 1.32 1.32 2 2 C0.37660195 3.70884005 -1.29319053 5.37446717 -3 7 C-3.66 7 -4.32 7 -5 7 C-4.6875 5.0625 -4.6875 5.0625 -4 3 C-3.01 2.67 -2.02 2.34 -1 2 C-0.67 1.34 -0.34 0.68 0 0 Z " fill="#7EABCD" transform="translate(38,195)"/>
<path d="M0 0 C0 2.31 0 4.62 0 7 C-0.4125 6.38125 -0.825 5.7625 -1.25 5.125 C-3.05573879 2.93231719 -4.4090534 2.07211583 -7 1 C-4 0 -4 0 0 0 Z " fill="#6890AE" transform="translate(65,168)"/>
<path d="M0 0 C3.8063457 0.67170806 7.35206816 1.72746564 11 3 C11 3.66 11 4.32 11 5 C6.69159287 3.92289822 3.36423277 2.96052484 0 0 Z " fill="#6C93AA" transform="translate(83,326)"/>
<path d="M0 0 C0.99 0 1.98 0 3 0 C3.625 2.375 3.625 2.375 4 5 C3.34 5.66 2.68 6.32 2 7 C1.87625 6.195625 1.7525 5.39125 1.625 4.5625 C1.315625 3.2940625 1.315625 3.2940625 1 2 C0.34 1.67 -0.32 1.34 -1 1 C-0.67 0.67 -0.34 0.34 0 0 Z " fill="#5583A0" transform="translate(335,307)"/>
<path d="M0 0 C0.33 0.66 0.66 1.32 1 2 C0.06553465 4.03144641 -0.93224776 6.03533587 -2 8 C-2.99 8 -3.98 8 -5 8 C-5 7.34 -5 6.68 -5 6 C-4.34 6 -3.68 6 -3 6 C-2.690625 5.195625 -2.38125 4.39125 -2.0625 3.5625 C-1 1 -1 1 0 0 Z " fill="#6F94AB" transform="translate(152,238)"/>
<path d="M0 0 C0.99 0 1.98 0 3 0 C2.42655063 2.86724686 2.1385485 3.8614515 0 6 C-0.66 5.67 -1.32 5.34 -2 5 C-1.125 1.125 -1.125 1.125 0 0 Z " fill="#3D7494" transform="translate(203,214)"/>
<path d="M0 0 C-2.6855594 2.6855594 -5.37621328 3.06049974 -9 4 C-8.67 3.01 -8.34 2.02 -8 1 C-5.29120665 -0.35439668 -2.99066732 -0.06501451 0 0 Z " fill="#89A6BE" transform="translate(303,334)"/>
<path d="M0 0 C2.96175123 0.61277612 4.38058783 1.25372522 7 3 C6.67 3.66 6.34 4.32 6 5 C4.35 4.67 2.7 4.34 1 4 C0.67 2.68 0.34 1.36 0 0 Z " fill="#9AB8CE" transform="translate(146,189)"/>
</svg>
