<?xml version="1.0" encoding="UTF-8"?>
<svg version="1.1" xmlns="http://www.w3.org/2000/svg" width="500" height="500">
<path d="M0 0 C165 0 330 0 500 0 C500 165 500 330 500 500 C335 500 170 500 0 500 C0 335 0 170 0 0 Z " fill="#FEFEFE" transform="translate(0,0)"/>
<path d="M0 0 C1.04865234 0.17402344 2.09730469 0.34804687 3.17773438 0.52734375 C7.92119874 1.34257951 12.10448471 2.2902278 16.5625 4.125 C18.46668114 4.56971322 20.37173281 5.01182944 22.28466797 5.41723633 C39.1839085 9.01057677 57.46005423 15.14008043 67.5625 30.125 C71.21953696 36.95897522 73.08644618 44.20240557 74.9375 51.6875 C75.23277588 52.8626416 75.52805176 54.0377832 75.83227539 55.24853516 C76.44263643 57.67856458 77.05045634 60.10923365 77.65576172 62.54052734 C78.5207018 65.95976543 79.42606014 69.36518481 80.34765625 72.76953125 C84.60430082 88.66075883 87.73463704 102.65737318 79.0546875 117.74609375 C72.71528948 127.19621963 64.655287 136.24293288 55.5625 143.125 C54.9025 143.125 54.2425 143.125 53.5625 143.125 C53.5625 143.785 53.5625 144.445 53.5625 145.125 C51.63547801 146.66238902 49.72494991 148.06007306 47.6875 149.4375 C47.09904297 149.83976807 46.51058594 150.24203613 45.90429688 150.65649414 C34.44662167 158.35132233 22.62750283 163.67974324 8.5625 162.125 C-1.63403396 159.32029786 -11.08845964 153.98210407 -20.4375 149.125 C-21.90171387 148.36533936 -21.90171387 148.36533936 -23.39550781 147.59033203 C-30.08386567 144.11654174 -36.76375972 140.62678381 -43.4375 137.125 C-43.4375 136.795 -43.4375 136.465 -43.4375 136.125 C-42.73109375 136.13402344 -42.0246875 136.14304687 -41.296875 136.15234375 C-10.45997119 135.26132769 18.14037183 112.43391537 40.5625 93.125 C41.46097656 92.3721875 42.35945313 91.619375 43.28515625 90.84375 C48.66158657 86.18568941 53.33553782 81.24499257 57.75 75.6875 C58.23210937 75.08397705 58.71421875 74.4804541 59.2109375 73.85864258 C61.95562806 70.40003845 61.95562806 70.40003845 62.5625 66.125 C31.17850425 48.58557543 -2.96634014 40.89584712 -38.4375 37.125 C-39.86740119 30.82263072 -40.7797617 24.83924044 -40.75 18.375 C-40.76611328 17.65957031 -40.78222656 16.94414062 -40.79882812 16.20703125 C-40.80430877 10.23313134 -39.4179605 6.16204509 -35.25 1.875 C-24.86223926 -4.58849557 -11.39099566 -2.02666295 0 0 Z " fill="#75A6CF" transform="translate(90.4375,169.875)"/>
<path d="M0 0 C1.5785648 3.15712961 1.05620948 6.53904912 1 10 C0.94044525 16.41499395 1.19050874 22.62525635 2 29 C5.3 29 8.6 29 12 29 C12 29.33 12 29.66 12 30 C9.03 30 6.06 30 3 30 C3.30164062 30.85722656 3.60328125 31.71445313 3.9140625 32.59765625 C4.9588729 35.87114495 5.70075434 39.07023786 6.375 42.4375 C7.7099284 48.84109056 9.30968002 55.1237302 11.03515625 61.4296875 C11.85564865 64.46584158 12.62473849 67.51009115 13.3815918 70.5625 C14.82296823 76.24378793 16.36014986 81.90044869 17.875 87.5625 C19.9296875 95.25390625 19.9296875 95.25390625 20.95214844 99.09033203 C21.67507949 101.79709056 22.40916933 104.50056383 23.14941406 107.20263672 C23.3351297 107.88551254 23.52084534 108.56838837 23.71218872 109.2719574 C24.22900841 111.17147716 24.74940868 113.07002166 25.27001953 114.96850586 C26 118 26 118 26 121 C26.99 121.495 26.99 121.495 28 122 C26.67935547 122.39832031 26.67935547 122.39832031 25.33203125 122.8046875 C24.17058594 123.15789062 23.00914063 123.51109375 21.8125 123.875 C20.66394531 124.22304688 19.51539063 124.57109375 18.33203125 124.9296875 C15.10665802 125.89663228 15.10665802 125.89663228 12.55859375 127.1015625 C6.24203321 129.31959139 -2.6130575 129.31092402 -8.8359375 126.90234375 C-11.13431211 125.43154088 -13.03873203 123.8939283 -15 122 C-15.55945313 121.48179687 -16.11890625 120.96359375 -16.6953125 120.4296875 C-26.48324727 110.24826791 -29.53974528 94.22313092 -31.56640625 80.75390625 C-32.07759728 77.50715243 -32.7767324 74.32947501 -33.53515625 71.1328125 C-35.4198371 62.48545332 -37.41936171 50.53178375 -33.1875 42.3125 C-29.84649788 37.3341229 -25.76061125 32.84654707 -21.83203125 28.32421875 C-18.44212431 24.39347845 -15.36244902 20.25337295 -12.28125 16.078125 C-9.7064426 12.60389858 -7.07882057 9.1737433 -4.4375 5.75 C-3.995271 5.17636719 -3.55304199 4.60273438 -3.09741211 4.01171875 C-2.06556661 2.67399669 -1.03288075 1.33692289 0 0 Z " fill="#CADDF0" transform="translate(50,178)"/>
<path d="M0 0 C1.04865234 0.17402344 2.09730469 0.34804687 3.17773438 0.52734375 C7.92119874 1.34257951 12.10448471 2.2902278 16.5625 4.125 C18.46668114 4.56971322 20.37173281 5.01182944 22.28466797 5.41723633 C39.45969422 9.06921798 56.99325557 15.24330442 67.5625 30.125 C72.23922985 38.35006268 73.0486675 44.87995815 70.59765625 54 C69.06201977 58.63588372 66.94358831 62.87103986 64.5625 67.125 C63.67691406 66.62871094 62.79132813 66.13242188 61.87890625 65.62109375 C30.73537891 48.41962769 -3.32883836 40.85731088 -38.4375 37.125 C-39.86740119 30.82263072 -40.7797617 24.83924044 -40.75 18.375 C-40.76611328 17.65957031 -40.78222656 16.94414062 -40.79882812 16.20703125 C-40.80430877 10.23313134 -39.4179605 6.16204509 -35.25 1.875 C-24.86223926 -4.58849557 -11.39099566 -2.02666295 0 0 Z " fill="#A0C2E3" transform="translate(90.4375,169.875)"/>
<path d="M0 0 C-1.48088888 3.77948596 -3.15047443 7.3850182 -5 11 C-7.1150361 10.54677798 -8.81843166 10.10978551 -10.6796875 8.984375 C-13.95123409 7.59644614 -16.83306589 7.66034864 -20.375 7.625 C-22.30472656 7.58246094 -22.30472656 7.58246094 -24.2734375 7.5390625 C-28.58051071 8.07180321 -30.66504436 9.27497725 -34 12 C-36.10209857 15.15314785 -36.2434761 15.86103081 -36.1953125 19.44921875 C-36.19031738 20.21322998 -36.18532227 20.97724121 -36.18017578 21.7644043 C-36.16196777 22.72902588 -36.14375977 23.69364746 -36.125 24.6875 C-36.08375 27.760625 -36.0425 30.83375 -36 34 C-26.43 34 -16.86 34 -7 34 C-7 37.63 -7 41.26 -7 45 C-16.57 45 -26.14 45 -36 45 C-36 71.73 -36 98.46 -36 126 C-40.62 126 -45.24 126 -50 126 C-50 99.27 -50 72.54 -50 45 C-55.28 45 -60.56 45 -66 45 C-66 41.37 -66 37.74 -66 34 C-60.72 34 -55.44 34 -50 34 C-50.33 32.35 -50.66 30.7 -51 29 C-51.73584556 19.80193053 -51.86167151 11.61589438 -46 4 C-33.95709025 -8.55026072 -14.31057486 -7.58894122 0 0 Z " fill="#437A9F" transform="translate(242,210)"/>
<path d="M0 0 C0 6.93 0 13.86 0 21 C9.9 21 19.8 21 30 21 C30 24.63 30 28.26 30 32 C20.43 32 10.86 32 1 32 C1.0466566 39.97361315 1.09705153 47.94563303 1.18379211 55.9186554 C1.22310644 59.63182422 1.25551696 63.34475428 1.27099609 67.05810547 C1.2861869 70.63753427 1.32067373 74.21631324 1.36830902 77.79545212 C1.38309816 79.15806796 1.39103961 80.5207766 1.39188385 81.88347244 C1.16734692 91.81661045 1.16734692 91.81661045 6 100 C10.38097743 102.19048871 16.21864232 101.35482095 21 101 C24.48706685 99.59501588 24.48706685 99.59501588 27 98 C30 99 30 99 31.75 102.3125 C33.31227306 106.92120552 33.31227306 106.92120552 32 110 C30.328125 111.23046875 30.328125 111.23046875 28.25 112.1875 C27.57453125 112.51105469 26.8990625 112.83460938 26.203125 113.16796875 C18.4927659 116.07985969 8.69939534 116.52803488 1.0625 113.3125 C-6.10476044 109.50571332 -9.52854153 105.90040734 -12.17736816 98.26473999 C-13.68583161 92.27817258 -13.48843229 86.27760628 -13.390625 80.14453125 C-13.3831448 78.74778563 -13.3774603 77.35102937 -13.37347412 75.95426941 C-13.3583572 72.31596807 -13.31920077 68.67832734 -13.2746582 65.0402832 C-13.23340007 61.31275361 -13.21539862 57.58511503 -13.1953125 53.85742188 C-13.15268854 46.57128159 -13.08245822 39.28581831 -13 32 C-18.28 32 -23.56 32 -29 32 C-29 28.37 -29 24.74 -29 21 C-23.72 21 -18.44 21 -13 21 C-13 14.4 -13 7.8 -13 1 C-10 0 -10 0 0 0 Z " fill="#42799E" transform="translate(272,223)"/>
<path d="M0 0 C0.70189453 0.00451172 1.40378906 0.00902344 2.12695312 0.01367188 C3.85550538 0.02543073 5.58401365 0.04336546 7.3125 0.0625 C7.6425 2.3725 7.9725 4.6825 8.3125 7.0625 C8.9725 6.7325 9.6325 6.4025 10.3125 6.0625 C10.3419191 9.54164843 10.35943792 13.02076417 10.375 16.5 C10.38337891 17.47388672 10.39175781 18.44777344 10.40039062 19.45117188 C10.45167151 34.78415698 10.45167151 34.78415698 8.3125 39.0625 C-0.09942037 39.16344304 -8.33149592 39.16352642 -16.6875 38.0625 C-18.40077279 31.83658906 -18.92779074 25.73843001 -19 19.3125 C-19.01740234 18.59199463 -19.03480469 17.87148926 -19.05273438 17.12915039 C-19.04831792 12.34999685 -18.21007263 9.1142694 -15.6875 5.0625 C-10.61780155 0.37302894 -6.68056847 -0.08109 0 0 Z " fill="#5D8FB7" transform="translate(68.6875,168.9375)"/>
<path d="M0 0 C0.66 0.33 1.32 0.66 2 1 C2.84763983 3.85310653 3.57684978 6.66705069 4.25 9.5625 C4.68522688 11.38825258 5.12146964 13.21376322 5.55859375 15.0390625 C5.7891748 16.0074707 6.01975586 16.97587891 6.25732422 17.97363281 C7.0160328 21.06533287 7.83007854 24.13767931 8.66015625 27.2109375 C12.68864395 42.25478447 16.02955084 55.18857181 9 70 C7.36328125 71.8359375 7.36328125 71.8359375 6 73 C6 69.66666667 6 66.33333333 6 63 C5.67 62.34 5.34 61.68 5 61 C4.01 61 3.02 61 2 61 C2 61.99 2 62.98 2 64 C1.34 64 0.68 64 0 64 C0 58.72 0 53.44 0 48 C-0.66 48 -1.32 48 -2 48 C-2.33 45.36 -2.66 42.72 -3 40 C-3.66 40 -4.32 40 -5 40 C-5.1546875 38.8553125 -5.1546875 38.8553125 -5.3125 37.6875 C-6.06227192 34.75657342 -6.83473267 33.98482838 -9 32 C-9.33 31.01 -9.66 30.02 -10 29 C-10.33 29.99 -10.66 30.98 -11 32 C-11.66 32 -12.32 32 -13 32 C-13 32.66 -13 33.32 -13 34 C-14.485 34.495 -14.485 34.495 -16 35 C-14.57329607 31.9018145 -12.82167421 29.38907515 -10.75 26.6875 C-7.70354393 22.39824282 -5.56041384 18.10946769 -3.625 13.25 C-3.24939941 12.31160278 -3.24939941 12.31160278 -2.86621094 11.35424805 C-1.431215 7.59661439 -0.5255674 3.98453424 0 0 Z " fill="#085981" transform="translate(162,215)"/>
<path d="M0 0 C0.33 1.98 0.66 3.96 1 6 C1.66 6 2.32 6 3 6 C3 6.99 3 7.98 3 9 C3.66 9 4.32 9 5 9 C5 9.66 5 10.32 5 11 C5.66 11 6.32 11 7 11 C7 11.66 7 12.32 7 13 C7.66 13 8.32 13 9 13 C9.185625 13.598125 9.37125 14.19625 9.5625 14.8125 C11.66566597 18.01296996 14.51866668 18.60746667 18 20 C18.495 20.99 18.495 20.99 19 22 C21.52733235 22.65555119 21.52733235 22.65555119 24 23 C24 23.66 24 24.32 24 25 C25.65 25 27.3 25 29 25 C29 25.66 29 26.32 29 27 C29.94875 26.79375 30.8975 26.5875 31.875 26.375 C33.421875 26.189375 33.421875 26.189375 35 26 C35.99 26.99 35.99 26.99 37 28 C21.03850339 32.49723461 6.71957324 23.12772567 -7 16 C-7.97614258 15.49355957 -8.95228516 14.98711914 -9.95800781 14.46533203 C-16.64636567 10.99154174 -23.32625972 7.50178381 -30 4 C-30 3.67 -30 3.34 -30 3 C-29.11957031 2.95101563 -28.23914062 2.90203125 -27.33203125 2.8515625 C-26.17058594 2.77679688 -25.00914063 2.70203125 -23.8125 2.625 C-22.08966797 2.52058594 -22.08966797 2.52058594 -20.33203125 2.4140625 C-17.17050063 2.02118765 -14.90011231 1.25055178 -12 0 C-7.95278203 -0.86672266 -3.9663742 -1.48739033 0 0 Z " fill="#0D6188" transform="translate(77,303)"/>
<path d="M0 0 C1.8871875 0.0309375 1.8871875 0.0309375 3.8125 0.0625 C2.8225 0.7225 1.8325 1.3825 0.8125 2.0625 C0.47405501 4.57417844 0.32370352 6.85248052 0.30078125 9.37109375 C0.28283005 10.09361832 0.26487885 10.81614288 0.24638367 11.56056213 C0.19215475 13.87364798 0.15837546 16.18652845 0.125 18.5 C0.09183134 20.05536762 0.05734209 21.61070768 0.02148438 23.16601562 C-0.08824093 28.13124456 -0.1875 33.09587912 -0.1875 38.0625 C-4.4775 38.0625 -8.7675 38.0625 -13.1875 38.0625 C-14.78778055 31.76139533 -15.42724247 25.78722032 -15.5 19.3125 C-15.51740234 18.59199463 -15.53480469 17.87148926 -15.55273438 17.12915039 C-15.54831792 12.34999685 -14.71007263 9.1142694 -12.1875 5.0625 C-8.2750291 1.44346442 -5.32067021 -0.0872241 0 0 Z M-2.1875 35.0625 C-1.1875 37.0625 -1.1875 37.0625 -1.1875 37.0625 Z " fill="#3F7BA4" transform="translate(65.1875,168.9375)"/>
<path d="M0 0 C2.87029869 1.79393668 4.49131638 2.98263276 6 6 C6 8.97 6 11.94 6 15 C0.06 15 -5.88 15 -12 15 C-10.59628479 20.7018576 -10.59628479 20.7018576 -8 23 C-5.814879 23.09884588 -5.814879 23.09884588 -3.4375 22.75 C-2.63183594 22.66234375 -1.82617188 22.5746875 -0.99609375 22.484375 C-0.33738281 22.32453125 0.32132812 22.1646875 1 22 C1.33 21.34 1.66 20.68 2 20 C3.32 20.33 4.64 20.66 6 21 C3.25 25.875 3.25 25.875 1 27 C-4.11664964 27.50260166 -8.52821374 27.84102072 -13.0625 25.25 C-16.92091269 20.76926268 -17.38647199 17.26418653 -17.25 11.47265625 C-16.79045441 6.92746319 -15.26920029 4.11988261 -11.875 1.125 C-7.85263447 -0.44896912 -4.26249679 -0.71813805 0 0 Z " fill="#5184A6" transform="translate(349,305)"/>
<path d="M0 0 C1.32 0 2.64 0 4 0 C4.33 4.29 4.66 8.58 5 13 C6.32 12.01 7.64 11.02 9 10 C13.14268205 9.63011767 16.56882841 9.45839141 20 12 C21.9054437 15.07900639 22.239104 17.39347231 22.1953125 20.984375 C22.18886719 21.91894531 22.18242187 22.85351562 22.17578125 23.81640625 C22.15902344 24.78449219 22.14226562 25.75257813 22.125 26.75 C22.11597656 27.73355469 22.10695313 28.71710938 22.09765625 29.73046875 C22.07412785 32.15389407 22.04125368 34.57682222 22 37 C20.68 37 19.36 37 18 37 C17.98541748 36.40985107 17.97083496 35.81970215 17.95581055 35.21166992 C17.88131156 32.53628771 17.78466005 29.86215108 17.6875 27.1875 C17.66494141 26.25873047 17.64238281 25.32996094 17.61914062 24.37304688 C17.5659668 23.0340332 17.5659668 23.0340332 17.51171875 21.66796875 C17.48553467 20.84578857 17.45935059 20.0236084 17.43237305 19.17651367 C16.9024759 16.50907547 16.20679902 15.56690697 14 14 C10.42243314 13.99917465 10.42243314 13.99917465 7 15 C4.94872156 18.07691766 4.72739128 18.93644999 4.5859375 22.44921875 C4.54726563 23.29677734 4.50859375 24.14433594 4.46875 25.01757812 C4.42234375 26.33918945 4.42234375 26.33918945 4.375 27.6875 C4.33632813 28.58017578 4.29765625 29.47285156 4.2578125 30.39257812 C4.16359782 32.5948462 4.07798412 34.79710722 4 37 C2.68 37 1.36 37 0 37 C0 24.79 0 12.58 0 0 Z " fill="#497EA2" transform="translate(390,295)"/>
<path d="M0 0 C0 1.32 0 2.64 0 4 C2.475 4.495 2.475 4.495 5 5 C5 5.66 5 6.32 5 7 C5.99 7.33 6.98 7.66 8 8 C9.16796875 9.84765625 9.16796875 9.84765625 10.1875 12.0625 C10.53167969 12.79597656 10.87585938 13.52945312 11.23046875 14.28515625 C11.48441406 14.85105469 11.73835938 15.41695313 12 16 C11.505 16.495 11.505 16.495 11 17 C4.19205156 16.74957138 -1.15535002 13.75976327 -7.125 10.6875 C-8.10082031 10.20087891 -9.07664062 9.71425781 -10.08203125 9.21289062 C-14.76420371 6.83986598 -19.07470263 4.54624505 -23 1 C-15.31516461 0.32546899 -7.71589817 -0.1567564 0 0 Z " fill="#0B5F86" transform="translate(70,305)"/>
<path d="M0 0 C0 10.89 0 21.78 0 33 C-1.98 33 -3.96 33 -6 33 C-8.42919226 24.64965162 -10.62989211 12.47759737 -6.7265625 4.34765625 C-3.08128834 0 -3.08128834 0 0 0 Z " fill="#075E87" transform="translate(58,173)"/>
<path d="M0 0 C0.66 0.5775 1.32 1.155 2 1.75 C2 3.07 2 4.39 2 5.75 C1.01 5.75 0.02 5.75 -1 5.75 C-1 5.09 -1 4.43 -1 3.75 C-2.6026782 3.64175157 -4.20745748 3.56429355 -5.8125 3.5 C-7.15248047 3.43039062 -7.15248047 3.43039062 -8.51953125 3.359375 C-11.11033771 3.52490338 -11.11033771 3.52490338 -12.8046875 5.484375 C-14.12336466 7.98382844 -14.37493271 9.44533057 -14.3125 12.25 C-14.30863281 13.0028125 -14.30476563 13.755625 -14.30078125 14.53125 C-13.96614324 16.99974857 -13.31041142 18.63852435 -12 20.75 C-9.15916359 22.17041821 -7.14522722 22.06452272 -4 21.75 C-1.62280307 19.87498069 -1.62280307 19.87498069 0 17.75 C0.99 18.08 1.98 18.41 3 18.75 C2.63565521 21.39149972 2.2472629 22.52214114 0.2578125 24.35546875 C-3.63112729 26.75746097 -7.58521135 26.50781411 -12 25.75 C-15.61984803 23.85665263 -17.68828756 21.68513731 -19 17.75 C-19.51236616 12.39955335 -19.64741984 8.06796182 -17.25 3.1875 C-12.39284503 -2.07441789 -6.55784874 -2.73243698 0 0 Z " fill="#4A7FA2" transform="translate(380,306.25)"/>
<path d="M0 0 C8.58 0 17.16 0 26 0 C26 0.99 26 1.98 26 3 C22.37 3 18.74 3 15 3 C15 13.56 15 24.12 15 35 C13.68 35 12.36 35 11 35 C11 24.44 11 13.88 11 3 C7.37 3 3.74 3 0 3 C0 2.01 0 1.02 0 0 Z " fill="#497EA2" transform="translate(305,297)"/>
<path d="M0 0 C0.66 0 1.32 0 2 0 C2.33 2.31 2.66 4.62 3 7 C3.66 6.67 4.32 6.34 5 6 C5.0294191 9.47914843 5.04693792 12.95826417 5.0625 16.4375 C5.07087891 17.41138672 5.07925781 18.38527344 5.08789062 19.38867188 C5.13917151 34.72165698 5.13917151 34.72165698 3 39 C1.35 39 -0.3 39 -2 39 C-2.125 33.25 -2.125 33.25 -1 31 C-0.92623243 28.76023219 -0.91653402 26.51822793 -0.9375 24.27734375 C-0.94128662 23.61666397 -0.94507324 22.95598419 -0.94897461 22.27528381 C-0.96120591 20.16262353 -0.97984116 18.05009865 -1 15.9375 C-1.02648544 13.15495177 -1.04652852 10.37246992 -1.0625 7.58984375 C-1.07410156 6.35097412 -1.08570312 5.11210449 -1.09765625 3.83569336 C-1 1 -1 1 0 0 Z " fill="#81ABCF" transform="translate(74,169)"/>
<path d="M0 0 C-0.00523682 0.98919434 -0.01047363 1.97838867 -0.01586914 2.99755859 C-0.03394523 6.66144916 -0.04544158 10.32533577 -0.05493164 13.98925781 C-0.05996588 15.57617861 -0.06679369 17.16309477 -0.07543945 18.75 C-0.08754482 21.02865749 -0.09323733 23.30725376 -0.09765625 25.5859375 C-0.10281754 26.29744965 -0.10797882 27.00896179 -0.11329651 27.74203491 C-0.17314758 31.49593556 -0.17314758 31.49593556 1 35 C-2.3 35 -5.6 35 -9 35 C-9 34.67 -9 34.34 -9 34 C-7.02 34 -5.04 34 -3 34 C-3 23.11 -3 12.22 -3 1 C-4.65 2.65 -6.3 4.3 -8 6 C-8.99 6.495 -8.99 6.495 -10 7 C-8.19699231 1.4407263 -6.01393878 -1.83689344 0 0 Z " fill="#266C93" transform="translate(61,172)"/>
<path d="M0 0 C0.33 1.98 0.66 3.96 1 6 C1.66 6 2.32 6 3 6 C3 6.99 3 7.98 3 9 C3.66 9 4.32 9 5 9 C5 9.66 5 10.32 5 11 C5.66 11 6.32 11 7 11 C7 11.66 7 12.32 7 13 C1.50847458 12.38983051 1.50847458 12.38983051 -0.875 10.5625 C-2 9 -2 9 -2 7 C-3.65 6.67 -5.3 6.34 -7 6 C-7 4.68 -7 3.36 -7 2 C-8.98 2 -10.96 2 -13 2 C-12.67 1.34 -12.34 0.68 -12 0 C-3.89667897 -1.46125461 -3.89667897 -1.46125461 0 0 Z " fill="#3A7BA5" transform="translate(77,303)"/>
<path d="M0 0 C2.375 1.75 2.375 1.75 4 4 C4 5.32 4 6.64 4 8 C-0.62 8 -5.24 8 -10 8 C-9 3 -9 3 -7.8125 1.1875 C-5.06937448 -0.60972017 -3.20418874 -0.45774125 0 0 Z " fill="#F6F9FA" transform="translate(347,308)"/>
<path d="M0 0 C0.66 0.66 1.32 1.32 2 2 C1.401875 2.721875 0.80375 3.44375 0.1875 4.1875 C-1.99279265 6.87434146 -1.99279265 6.87434146 -3.5 9.5 C-6.02362282 13.70603803 -8.83057641 16.92195099 -12.625 20 C-15.51444301 22.38827624 -17.01641476 24.28423354 -18 28 C-18.66 28 -19.32 28 -20 28 C-18.61749414 22.45311674 -15.99040341 19.2453413 -12.25 15.125 C-11.16483019 13.89745436 -10.08148075 12.66829697 -9 11.4375 C-8.48179688 10.8496875 -7.96359375 10.261875 -7.4296875 9.65625 C-4.76538022 6.56973009 -2.38090735 3.30681576 0 0 Z " fill="#89B6D7" transform="translate(37,195)"/>
<path d="M0 0 C2.875 0.3125 2.875 0.3125 6 1 C6.66 1.99 7.32 2.98 8 4 C10.56282742 4.72965366 10.56282742 4.72965366 13 5 C13 5.66 13 6.32 13 7 C14.65 7 16.3 7 18 7 C18 7.66 18 8.32 18 9 C18.94875 8.79375 19.8975 8.5875 20.875 8.375 C21.90625 8.25125 22.9375 8.1275 24 8 C24.66 8.66 25.32 9.32 26 10 C22.68929162 11.00109515 19.69915231 11.10356134 16.25 11.0625 C15.26515625 11.05347656 14.2803125 11.04445313 13.265625 11.03515625 C12.51796875 11.02355469 11.7703125 11.01195312 11 11 C11.66 10.34 12.32 9.68 13 9 C8.71 7.02 4.42 5.04 0 3 C0 2.01 0 1.02 0 0 Z " fill="#1A6993" transform="translate(88,321)"/>
<path d="M0 0 C0.66 0 1.32 0 2 0 C2.09776087 10.38437692 2.1555538 20.66192051 1 31 C0.34 31 -0.32 31 -1 31 C-1.02465622 26.74585377 -1.04283899 22.49174502 -1.05493164 18.23754883 C-1.05997101 16.78929927 -1.06680253 15.34105483 -1.07543945 13.89282227 C-1.08752247 11.81525412 -1.09323211 9.73775303 -1.09765625 7.66015625 C-1.10289307 6.40855713 -1.10812988 5.15695801 -1.11352539 3.86743164 C-1 1 -1 1 0 0 Z " fill="#75A3C8" transform="translate(74,169)"/>
<path d="M0 0 C3.3 0 6.6 0 10 0 C10 1.32 10 2.64 10 4 C11.65 4.33 13.3 4.66 15 5 C15 5.66 15 6.32 15 7 C15.99 7.33 16.98 7.66 18 8 C18 8.66 18 9.32 18 10 C17.01 10 16.02 10 15 10 C15 9.34 15 8.68 15 8 C14.45859375 7.89816406 13.9171875 7.79632813 13.359375 7.69140625 C10.39403419 6.82242393 7.94475054 5.44527709 5.25 3.9375 C4.26515625 3.38964844 3.2803125 2.84179688 2.265625 2.27734375 C1.51796875 1.85582031 0.7703125 1.43429687 0 1 C0 0.67 0 0.34 0 0 Z " fill="#1A6993" transform="translate(60,305)"/>
<path d="M0 0 C1.47193312 2.94386623 0.84936173 5.37390036 0.5625 8.625 C0.46066406 9.81351563 0.35882813 11.00203125 0.25390625 12.2265625 C0.17011719 13.14179688 0.08632813 14.05703125 0 15 C-1.76462683 11.91190305 -2 10.76687864 -2 7 C-4.97 10.3 -7.94 13.6 -11 17 C-11 13.07289862 -9.67475926 12.04272956 -7.1875 9.0625 C-4.72215878 6.08523 -2.29067167 3.11444634 0 0 Z " fill="#7CAED1" transform="translate(50,178)"/>
<path d="M0 0 C3.38613861 4.51485149 3.38613861 4.51485149 3.25 8 C3.22421875 8.6909375 3.1984375 9.381875 3.171875 10.09375 C2.98704199 12.1437161 2.65173869 14.04478392 2 16 C1.34 16 0.68 16 0 16 C0 10.72 0 5.44 0 0 Z " fill="#246F9A" transform="translate(162,263)"/>
<path d="M0 0 C0.66 0.66 1.32 1.32 2 2 C1.401875 2.721875 0.80375 3.44375 0.1875 4.1875 C-2.03027508 6.89978712 -2.03027508 6.89978712 -3.5625 9.75 C-5 12 -5 12 -8 13 C-7.39665691 9.29496359 -5.77525763 7.14031852 -3.4375 4.25 C-2.79683594 3.45078125 -2.15617187 2.6515625 -1.49609375 1.828125 C-1.00238281 1.22484375 -0.50867187 0.6215625 0 0 Z " fill="#7EAFD5" transform="translate(37,195)"/>
<path d="M0 0 C1.93719378 -0.05406122 3.87481921 -0.09282025 5.8125 -0.125 C6.89144531 -0.14820313 7.97039062 -0.17140625 9.08203125 -0.1953125 C12 0 12 0 15 2 C14.34 2 13.68 2 13 2 C12.34 5.3 11.68 8.6 11 12 C10.67 12 10.34 12 10 12 C10 8.37 10 4.74 10 1 C6.7 1 3.4 1 0 1 C0 0.67 0 0.34 0 0 Z " fill="#96B8D3" transform="translate(66,168)"/>
<path d="M0 0 C0.99 0.33 1.98 0.66 3 1 C2.38080922 2.46080933 1.75443308 3.91857455 1.125 5.375 C0.77695313 6.18710937 0.42890625 6.99921875 0.0703125 7.8359375 C-1 10 -1 10 -3 12 C-3.36923077 4.61538462 -3.36923077 4.61538462 -1.5 1.5 C-1.005 1.005 -0.51 0.51 0 0 Z " fill="#176188" transform="translate(171,276)"/>
<path d="M0 0 C0.33 0 0.66 0 1 0 C0.67 3.3 0.34 6.6 0 10 C-0.66 9.01 -1.32 8.02 -2 7 C-2.33 7.99 -2.66 8.98 -3 10 C-3.66 10 -4.32 10 -5 10 C-5 10.66 -5 11.32 -5 12 C-5.99 12.33 -6.98 12.66 -8 13 C-6.53400783 9.91220974 -4.82973607 7.09532795 -2.9375 4.25 C-2.41027344 3.45078125 -1.88304687 2.6515625 -1.33984375 1.828125 C-0.89769531 1.22484375 -0.45554688 0.6215625 0 0 Z " fill="#36799F" transform="translate(154,237)"/>
<path d="M0 0 C4.95 1.98 4.95 1.98 10 4 C10 4.33 10 4.66 10 5 C0.58997722 5.3690205 0.58997722 5.3690205 -4 3 C-2.68 2.67 -1.36 2.34 0 2 C0 1.34 0 0.68 0 0 Z " fill="#1B688D" transform="translate(94,326)"/>
<path d="M0 0 C0.99 0 1.98 0 3 0 C3 0.66 3 1.32 3 2 C3.94875 1.79375 4.8975 1.5875 5.875 1.375 C7.421875 1.189375 7.421875 1.189375 9 1 C9.66 1.66 10.32 2.32 11 3 C7.68929162 4.00109515 4.69915231 4.10356134 1.25 4.0625 C0.26515625 4.05347656 -0.7196875 4.04445313 -1.734375 4.03515625 C-2.48203125 4.02355469 -3.2296875 4.01195312 -4 4 C-2.68 3.34 -1.36 2.68 0 2 C0 1.34 0 0.68 0 0 Z " fill="#4782A2" transform="translate(103,328)"/>
<path d="M0 0 C0.66 0.99 1.32 1.98 2 3 C0.72125 3.061875 -0.5575 3.12375 -1.875 3.1875 C-2.59429687 3.22230469 -3.31359375 3.25710938 -4.0546875 3.29296875 C-4.69664063 3.19628906 -5.33859375 3.09960938 -6 3 C-6.66 2.01 -7.32 1.02 -8 0 C-5.06791253 -1.46604374 -3.11702298 -0.77925574 0 0 Z " fill="#93B6D4" transform="translate(50,303)"/>
<path d="M0 0 C2.24606427 1.77444972 2.95081002 2.58352485 3.29296875 5.48046875 C3.25816406 6.37378906 3.22335938 7.26710937 3.1875 8.1875 C3.16042969 9.08855469 3.13335937 9.98960937 3.10546875 10.91796875 C3.07066406 11.60503906 3.03585938 12.29210937 3 13 C2.67 13 2.34 13 2 13 C1.67 11.35 1.34 9.7 1 8 C0.67 8 0.34 8 0 8 C0 5.36 0 2.72 0 0 Z " fill="#166A96" transform="translate(155,242)"/>
<path d="M0 0 C2.64 0.33 5.28 0.66 8 1 C8.33 2.32 8.66 3.64 9 5 C7.68 5 6.36 5 5 5 C5 4.01 5 3.02 5 2 C3.35 1.67 1.7 1.34 0 1 C0 0.67 0 0.34 0 0 Z " fill="#1F6B94" transform="translate(78,315)"/>
<path d="M0 0 C0.99 0.33 1.98 0.66 3 1 C3.33 1.99 3.66 2.98 4 4 C3.67 4.66 3.34 5.32 3 6 C1.68 5.67 0.36 5.34 -1 5 C-0.67 3.35 -0.34 1.7 0 0 Z " fill="#3A7BA4" transform="translate(163,287)"/>
<path d="M0 0 C3.3 0 6.6 0 10 0 C9.67 1.32 9.34 2.64 9 4 C6.03 3.01 3.06 2.02 0 1 C0 0.67 0 0.34 0 0 Z " fill="#29719A" transform="translate(60,305)"/>
<path d="M0 0 C2.60334924 2.71182212 2.99456691 3.89133813 3.1875 7.75 C3.0946875 9.35875 3.0946875 9.35875 3 11 C0.87953208 7.46588679 0.46800711 4.05606165 0 0 Z " fill="#136995" transform="translate(162,263)"/>
</svg>
